<svg width="268" height="174" viewBox="0 0 268 174" fill="none" xmlns="http://www.w3.org/2000/svg">
<g clip-path="url(#clip0_884_1686)">
<rect width="268" height="174" fill="white"/>
<path d="M113.579 73C107.579 64.2 117.746 52.6667 123.579 48L122.079 43L128.579 42L132.079 34.5L133.079 35C135.079 15.8 151.246 11.3333 159.079 11.5C163.879 21.1 158.412 31.1667 155.079 35L159.079 36.5C149.079 41.7 148.246 48.6667 149.079 51.5L147.579 52C150.379 55.2 151.079 64.3333 151.079 68.5L138.079 65C134.079 69.8 125.746 73.6667 122.079 75L120.579 70.5L113.579 73Z" fill="black" fill-opacity="0.1"/>
<path d="M81.0297 113.244L72.579 103.792L87.7902 90.1455L89.543 92.0861L101.374 81.82L109.574 91.0845L100.247 99.5978L98.4319 97.8451L81.0297 113.244Z" fill="#2C4032" fill-opacity="0.5"/>
<circle cx="89.829" cy="99.25" r="2.25" fill="#222222"/>
<path d="M91.2957 89.0188L86.5383 83.9484L94.363 77L99.1205 82.2582L91.2957 89.0188Z" fill="#2C4032" fill-opacity="0.5"/>
<path d="M86.4757 108.674L80.5915 114.058L83.158 117L89.1048 111.554L86.4757 108.674Z" fill="#2C4032" fill-opacity="0.5"/>
<path d="M142.579 122.5L135.579 113L149.079 102L141.079 91.5L150.079 84.5L156.079 91.5L160.579 88.5L164.579 94L160.579 97.5L162.579 100L159.579 103L162.579 106.5L142.579 122.5Z" fill="#222222" fill-opacity="0.1"/>
<path d="M141.835 161.814L45.4874 157.02C45.2156 157.007 44.9359 156.971 44.6713 156.907C31.7766 153.792 34.23 138.423 37.8623 128.529C38.5463 126.666 40.3609 125.5 42.3458 125.5H43.4766C44.5188 125.5 45.5348 125.174 46.3828 124.569L47.2751 123.931C48.1231 123.326 49.1392 123 50.1813 123H55.2839C56.9969 123 58.5629 122.032 59.329 120.5C60.0951 118.968 61.661 118 63.3741 118H77.4952C79.9054 118 81.7485 120.148 81.382 122.53C81.1915 123.769 81.6023 125.023 82.4881 125.909L83.1659 126.587C84.6213 128.042 86.8198 128.457 88.7055 127.632L92.4177 126.008C93.1798 125.675 94.0131 125.537 94.842 125.607L132.696 128.799C134.043 128.913 135.079 130.04 135.079 131.392C135.079 132.377 135.636 133.278 136.517 133.719L137.525 134.223C137.892 134.407 138.293 134.536 138.694 134.629C149.193 137.076 148.756 149.826 146.636 158.407C146.104 160.564 144.054 161.924 141.835 161.814Z" fill="black" fill-opacity="0.1"/>
<path d="M47.0477 91.5117C47.0477 91.4102 47.0321 91.319 47.0009 91.2383C46.9722 91.1549 46.9175 91.0794 46.8368 91.0117C46.7561 90.9414 46.6428 90.8724 46.4969 90.8047C46.3511 90.737 46.1623 90.6667 45.9305 90.5938C45.6727 90.5104 45.4279 90.4167 45.1962 90.3125C44.967 90.2083 44.7639 90.0872 44.5868 89.9492C44.4123 89.8086 44.2743 89.6458 44.1727 89.4609C44.0738 89.276 44.0243 89.0612 44.0243 88.8164C44.0243 88.5794 44.0764 88.3646 44.1805 88.1719C44.2847 87.9766 44.4305 87.8099 44.618 87.6719C44.8055 87.5312 45.0269 87.4232 45.2821 87.3477C45.5399 87.2721 45.8225 87.2344 46.1298 87.2344C46.549 87.2344 46.9149 87.3099 47.2274 87.4609C47.5399 87.612 47.7821 87.819 47.954 88.082C48.1285 88.3451 48.2157 88.6458 48.2157 88.9844H47.0516C47.0516 88.8177 47.0165 88.6719 46.9462 88.5469C46.8785 88.4193 46.7743 88.319 46.6337 88.2461C46.4956 88.1732 46.3212 88.1367 46.1102 88.1367C45.9071 88.1367 45.7378 88.168 45.6024 88.2305C45.467 88.2904 45.3654 88.3724 45.2977 88.4766C45.23 88.5781 45.1962 88.6927 45.1962 88.8203C45.1962 88.9167 45.2196 89.0039 45.2665 89.082C45.316 89.1602 45.3889 89.2331 45.4852 89.3008C45.5816 89.3685 45.7001 89.4323 45.8407 89.4922C45.9813 89.5521 46.1441 89.6107 46.329 89.668C46.6389 89.7617 46.911 89.8672 47.1454 89.9844C47.3824 90.1016 47.5803 90.2331 47.7391 90.3789C47.898 90.5247 48.0178 90.6901 48.0985 90.875C48.1792 91.0599 48.2196 91.2695 48.2196 91.5039C48.2196 91.7513 48.1714 91.9727 48.0751 92.168C47.9787 92.3633 47.8394 92.5286 47.6571 92.6641C47.4748 92.7995 47.2574 92.9023 47.0048 92.9727C46.7522 93.043 46.4696 93.0781 46.1571 93.0781C45.8759 93.0781 45.5985 93.0417 45.3251 92.9688C45.0516 92.8932 44.8029 92.7799 44.579 92.6289C44.3576 92.4779 44.1805 92.2852 44.0477 92.0508C43.9149 91.8164 43.8485 91.5391 43.8485 91.2188H45.0243C45.0243 91.3958 45.0516 91.5456 45.1063 91.668C45.161 91.7904 45.2378 91.8893 45.3368 91.9648C45.4384 92.0404 45.5581 92.0951 45.6962 92.1289C45.8368 92.1628 45.9904 92.1797 46.1571 92.1797C46.3602 92.1797 46.5269 92.151 46.6571 92.0938C46.7899 92.0365 46.8876 91.957 46.9501 91.8555C47.0152 91.7539 47.0477 91.6393 47.0477 91.5117ZM49.7638 87V93H48.6388V87H49.7638ZM49.6037 90.7383H49.2951C49.2977 90.444 49.3367 90.1732 49.4123 89.9258C49.4878 89.6758 49.5959 89.4596 49.7365 89.2773C49.8771 89.0924 50.0451 88.9492 50.2404 88.8477C50.4383 88.7461 50.6571 88.6953 50.8966 88.6953C51.105 88.6953 51.2938 88.7253 51.463 88.7852C51.6349 88.8424 51.7821 88.9362 51.9044 89.0664C52.0294 89.194 52.1258 89.362 52.1935 89.5703C52.2612 89.7786 52.2951 90.0312 52.2951 90.3281V93H51.1623V90.3203C51.1623 90.1328 51.1349 89.9857 51.0802 89.8789C51.0281 89.7695 50.9513 89.6927 50.8498 89.6484C50.7508 89.6016 50.6284 89.5781 50.4826 89.5781C50.3211 89.5781 50.1831 89.6081 50.0685 89.668C49.9565 89.7279 49.8667 89.8112 49.799 89.918C49.7313 90.0221 49.6818 90.1445 49.6505 90.2852C49.6193 90.4258 49.6037 90.5768 49.6037 90.7383ZM55.1518 92.0469V90.1641C55.1518 90.0286 55.1297 89.9128 55.0854 89.8164C55.0411 89.7174 54.9721 89.6406 54.8784 89.5859C54.7872 89.5312 54.6687 89.5039 54.5229 89.5039C54.3979 89.5039 54.2898 89.526 54.1987 89.5703C54.1075 89.612 54.0372 89.6732 53.9877 89.7539C53.9382 89.832 53.9135 89.9245 53.9135 90.0312H52.7885C52.7885 89.8516 52.8302 89.681 52.9135 89.5195C52.9968 89.3581 53.1179 89.2161 53.2768 89.0938C53.4356 88.9688 53.6244 88.8711 53.8432 88.8008C54.0646 88.7305 54.3119 88.6953 54.5854 88.6953C54.9135 88.6953 55.2052 88.75 55.4604 88.8594C55.7156 88.9688 55.9161 89.1328 56.0619 89.3516C56.2104 89.5703 56.2846 89.8438 56.2846 90.1719V91.9805C56.2846 92.2122 56.2989 92.4023 56.3276 92.5508C56.3562 92.6966 56.3979 92.8242 56.4526 92.9336V93H55.3159C55.2612 92.8854 55.2195 92.7422 55.1909 92.5703C55.1648 92.3958 55.1518 92.2214 55.1518 92.0469ZM55.3002 90.4258L55.308 91.0625H54.6791C54.5307 91.0625 54.4018 91.0794 54.2924 91.1133C54.183 91.1471 54.0932 91.1953 54.0229 91.2578C53.9526 91.3177 53.9005 91.388 53.8666 91.4688C53.8354 91.5495 53.8198 91.638 53.8198 91.7344C53.8198 91.8307 53.8419 91.918 53.8862 91.9961C53.9304 92.0716 53.9942 92.1315 54.0776 92.1758C54.1609 92.2174 54.2586 92.2383 54.3705 92.2383C54.5398 92.2383 54.6869 92.2044 54.8119 92.1367C54.9369 92.069 55.0333 91.9857 55.101 91.8867C55.1713 91.7878 55.2078 91.694 55.2104 91.6055L55.5073 92.082C55.4656 92.1888 55.4083 92.2995 55.3354 92.4141C55.2651 92.5286 55.1752 92.6367 55.0659 92.7383C54.9565 92.8372 54.825 92.9193 54.6713 92.9844C54.5177 93.0469 54.3354 93.0781 54.1244 93.0781C53.8562 93.0781 53.6127 93.0247 53.394 92.918C53.1778 92.8086 53.006 92.6589 52.8784 92.4688C52.7534 92.276 52.6909 92.0573 52.6909 91.8125C52.6909 91.5911 52.7325 91.3945 52.8159 91.2227C52.8992 91.0508 53.0216 90.9062 53.183 90.7891C53.3471 90.6693 53.5515 90.5794 53.7963 90.5195C54.0411 90.457 54.325 90.4258 54.6479 90.4258H55.3002ZM59.3718 91.9883V88.7734H60.4968V93H59.4382L59.3718 91.9883ZM59.4968 91.1211L59.8288 91.1133C59.8288 91.3945 59.7963 91.6562 59.7312 91.8984C59.6661 92.138 59.5684 92.3464 59.4382 92.5234C59.308 92.6979 59.1439 92.8346 58.946 92.9336C58.7481 93.0299 58.515 93.0781 58.2468 93.0781C58.0411 93.0781 57.851 93.0495 57.6765 92.9922C57.5046 92.9323 57.3562 92.8398 57.2312 92.7148C57.1088 92.5872 57.0124 92.4245 56.9421 92.2266C56.8744 92.026 56.8405 91.7852 56.8405 91.5039V88.7734H57.9655V91.5117C57.9655 91.6367 57.9799 91.7422 58.0085 91.8281C58.0398 91.9141 58.0827 91.9844 58.1374 92.0391C58.1921 92.0938 58.2559 92.1328 58.3288 92.1562C58.4043 92.1797 58.4877 92.1914 58.5788 92.1914C58.8106 92.1914 58.9929 92.1445 59.1257 92.0508C59.2611 91.957 59.3562 91.8294 59.4109 91.668C59.4681 91.5039 59.4968 91.3216 59.4968 91.1211ZM63.7519 88.7734H64.7715V92.8594C64.7715 93.2448 64.6855 93.5716 64.5137 93.8398C64.3444 94.1107 64.1074 94.3151 63.8027 94.4531C63.498 94.5938 63.1439 94.6641 62.7402 94.6641C62.5631 94.6641 62.3756 94.6406 62.1777 94.5938C61.9824 94.5469 61.7949 94.474 61.6152 94.375C61.4381 94.276 61.2897 94.151 61.1699 94L61.666 93.3359C61.7962 93.487 61.9473 93.6042 62.1191 93.6875C62.291 93.7734 62.4811 93.8164 62.6894 93.8164C62.8926 93.8164 63.0644 93.7786 63.2051 93.7031C63.3457 93.6302 63.4538 93.5221 63.5293 93.3789C63.6048 93.2383 63.6426 93.0677 63.6426 92.8672V89.75L63.7519 88.7734ZM60.9082 90.9375V90.8555C60.9082 90.5326 60.9473 90.2396 61.0254 89.9766C61.1061 89.7109 61.2194 89.4831 61.3652 89.293C61.5137 89.1029 61.6934 88.9557 61.9043 88.8516C62.1152 88.7474 62.3535 88.6953 62.6191 88.6953C62.9004 88.6953 63.1361 88.7474 63.3262 88.8516C63.5163 88.9557 63.6725 89.1042 63.7949 89.2969C63.9173 89.487 64.0124 89.7122 64.0801 89.9727C64.1504 90.2305 64.2051 90.513 64.2441 90.8203V91C64.2051 91.2943 64.1465 91.5677 64.0684 91.8203C63.9902 92.0729 63.8874 92.2943 63.7598 92.4844C63.6322 92.6719 63.4733 92.8177 63.2832 92.9219C63.0957 93.026 62.8717 93.0781 62.6113 93.0781C62.3509 93.0781 62.1152 93.0247 61.9043 92.918C61.696 92.8112 61.5176 92.6615 61.3691 92.4688C61.2207 92.276 61.1061 92.0495 61.0254 91.7891C60.9473 91.5286 60.9082 91.2448 60.9082 90.9375ZM62.0332 90.8555V90.9375C62.0332 91.112 62.0501 91.2747 62.084 91.4258C62.1178 91.5768 62.1699 91.7109 62.2402 91.8281C62.3131 91.9427 62.403 92.0326 62.5098 92.0977C62.6191 92.1602 62.748 92.1914 62.8965 92.1914C63.1022 92.1914 63.2702 92.1484 63.4004 92.0625C63.5306 91.974 63.6282 91.8529 63.6934 91.6992C63.7585 91.5456 63.7962 91.3685 63.8066 91.168V90.6562C63.8014 90.4922 63.7793 90.3451 63.7402 90.2148C63.7012 90.082 63.6465 89.9688 63.5762 89.875C63.5059 89.7812 63.4147 89.7083 63.3027 89.6562C63.1907 89.6042 63.0579 89.5781 62.9043 89.5781C62.7559 89.5781 62.6269 89.612 62.5176 89.6797C62.4108 89.7448 62.321 89.8346 62.248 89.9492C62.1777 90.0638 62.1243 90.1992 62.0879 90.3555C62.0514 90.5091 62.0332 90.6758 62.0332 90.8555ZM66.4641 87V93H65.3391V87H66.4641ZM66.304 90.7383H65.9954C65.998 90.444 66.0371 90.1732 66.1126 89.9258C66.1881 89.6758 66.2962 89.4596 66.4368 89.2773C66.5774 89.0924 66.7454 88.9492 66.9407 88.8477C67.1386 88.7461 67.3574 88.6953 67.5969 88.6953C67.8053 88.6953 67.9941 88.7253 68.1634 88.7852C68.3352 88.8424 68.4824 88.9362 68.6048 89.0664C68.7298 89.194 68.8261 89.362 68.8938 89.5703C68.9615 89.7786 68.9954 90.0312 68.9954 90.3281V93H67.8626V90.3203C67.8626 90.1328 67.8352 89.9857 67.7805 89.8789C67.7285 89.7695 67.6516 89.6927 67.5501 89.6484C67.4511 89.6016 67.3287 89.5781 67.1829 89.5781C67.0214 89.5781 66.8834 89.6081 66.7688 89.668C66.6568 89.7279 66.567 89.8112 66.4993 89.918C66.4316 90.0221 66.3821 90.1445 66.3509 90.2852C66.3196 90.4258 66.304 90.5768 66.304 90.7383ZM70.6724 89.6758V93H69.5474V88.7734H70.6021L70.6724 89.6758ZM70.5084 90.7383H70.2037C70.2037 90.4258 70.244 90.1445 70.3248 89.8945C70.4055 89.6419 70.5188 89.4271 70.6646 89.25C70.8104 89.0703 70.9836 88.9336 71.1841 88.8398C71.3873 88.7435 71.6138 88.6953 71.8638 88.6953C72.0617 88.6953 72.2427 88.724 72.4068 88.7812C72.5709 88.8385 72.7115 88.9297 72.8287 89.0547C72.9485 89.1797 73.0396 89.3451 73.1021 89.5508C73.1672 89.7565 73.1998 90.0078 73.1998 90.3047V93H72.0669V90.3008C72.0669 90.1133 72.0409 89.9674 71.9888 89.8633C71.9367 89.7591 71.8599 89.6862 71.7584 89.6445C71.6594 89.6003 71.537 89.5781 71.3912 89.5781C71.2401 89.5781 71.1086 89.6081 70.9966 89.668C70.8873 89.7279 70.7961 89.8112 70.7232 89.918C70.6529 90.0221 70.5995 90.1445 70.563 90.2852C70.5266 90.4258 70.5084 90.5768 70.5084 90.7383ZM75.7205 93.0781C75.3924 93.0781 75.0981 93.026 74.8377 92.9219C74.5773 92.8151 74.356 92.668 74.1737 92.4805C73.994 92.293 73.856 92.0755 73.7596 91.8281C73.6633 91.5781 73.6151 91.3125 73.6151 91.0312V90.875C73.6151 90.5547 73.6606 90.2617 73.7518 89.9961C73.8429 89.7305 73.9731 89.5 74.1424 89.3047C74.3143 89.1094 74.5226 88.9596 74.7674 88.8555C75.0122 88.7487 75.2883 88.6953 75.5955 88.6953C75.895 88.6953 76.1606 88.7448 76.3924 88.8438C76.6242 88.9427 76.8182 89.0833 76.9744 89.2656C77.1333 89.4479 77.2531 89.6667 77.3338 89.9219C77.4146 90.1745 77.4549 90.4557 77.4549 90.7656V91.2344H74.0955V90.4844H76.3494V90.3984C76.3494 90.2422 76.3208 90.1029 76.2635 89.9805C76.2088 89.8555 76.1255 89.7565 76.0135 89.6836C75.9015 89.6107 75.7583 89.5742 75.5838 89.5742C75.4354 89.5742 75.3078 89.6068 75.201 89.6719C75.0942 89.737 75.007 89.8281 74.9393 89.9453C74.8742 90.0625 74.8247 90.2005 74.7909 90.3594C74.7596 90.5156 74.744 90.6875 74.744 90.875V91.0312C74.744 91.2005 74.7674 91.3568 74.8143 91.5C74.8638 91.6432 74.9328 91.7669 75.0213 91.8711C75.1125 91.9753 75.2218 92.056 75.3494 92.1133C75.4797 92.1706 75.6268 92.1992 75.7909 92.1992C75.994 92.1992 76.1828 92.1602 76.3573 92.082C76.5343 92.0013 76.6867 91.8802 76.8143 91.7188L77.3612 92.3125C77.2726 92.4401 77.1515 92.5625 76.9979 92.6797C76.8468 92.7969 76.6646 92.8932 76.451 92.9688C76.2375 93.0417 75.994 93.0781 75.7205 93.0781ZM80.1007 91.832C80.1007 91.7513 80.0773 91.6784 80.0304 91.6133C79.9835 91.5482 79.8963 91.4883 79.7687 91.4336C79.6437 91.3763 79.4627 91.3242 79.2257 91.2773C79.0122 91.2305 78.8129 91.1719 78.628 91.1016C78.4457 91.0286 78.2869 90.9414 78.1515 90.8398C78.0187 90.7383 77.9145 90.6185 77.839 90.4805C77.7635 90.3398 77.7257 90.1797 77.7257 90C77.7257 89.8229 77.7635 89.6562 77.839 89.5C77.9171 89.3438 78.0278 89.2057 78.171 89.0859C78.3168 88.9635 78.4939 88.8685 78.7023 88.8008C78.9132 88.7305 79.1502 88.6953 79.4132 88.6953C79.7804 88.6953 80.0955 88.7539 80.3585 88.8711C80.6241 88.9883 80.8273 89.1497 80.9679 89.3555C81.1111 89.5586 81.1827 89.7904 81.1827 90.0508H80.0577C80.0577 89.9414 80.0343 89.8438 79.9874 89.7578C79.9431 89.6693 79.8728 89.6003 79.7765 89.5508C79.6827 89.4987 79.5603 89.4727 79.4093 89.4727C79.2843 89.4727 79.1762 89.4948 79.0851 89.5391C78.9939 89.5807 78.9236 89.638 78.8741 89.7109C78.8273 89.7812 78.8038 89.8594 78.8038 89.9453C78.8038 90.0104 78.8168 90.069 78.8429 90.1211C78.8715 90.1706 78.9171 90.2161 78.9796 90.2578C79.0421 90.2995 79.1228 90.3385 79.2218 90.375C79.3234 90.4089 79.4484 90.4401 79.5968 90.4688C79.9015 90.5312 80.1736 90.6133 80.4132 90.7148C80.6528 90.8138 80.8429 90.9492 80.9835 91.1211C81.1241 91.2904 81.1944 91.513 81.1944 91.7891C81.1944 91.9766 81.1528 92.1484 81.0694 92.3047C80.9861 92.4609 80.8663 92.5977 80.7101 92.7148C80.5538 92.8294 80.3663 92.9193 80.1476 92.9844C79.9314 93.0469 79.6879 93.0781 79.4171 93.0781C79.0239 93.0781 78.6905 93.0078 78.4171 92.8672C78.1463 92.7266 77.9405 92.5482 77.7999 92.332C77.6619 92.1133 77.5929 91.8893 77.5929 91.6602H78.6593C78.6645 91.8138 78.7036 91.9375 78.7765 92.0312C78.852 92.125 78.9471 92.1927 79.0616 92.2344C79.1788 92.276 79.3051 92.2969 79.4405 92.2969C79.5864 92.2969 79.7075 92.2773 79.8038 92.2383C79.9002 92.1966 79.9731 92.1419 80.0226 92.0742C80.0747 92.0039 80.1007 91.9232 80.1007 91.832ZM83.9301 91.832C83.9301 91.7513 83.9066 91.6784 83.8598 91.6133C83.8129 91.5482 83.7256 91.4883 83.598 91.4336C83.473 91.3763 83.2921 91.3242 83.0551 91.2773C82.8415 91.2305 82.6423 91.1719 82.4574 91.1016C82.2751 91.0286 82.1163 90.9414 81.9809 90.8398C81.848 90.7383 81.7439 90.6185 81.6684 90.4805C81.5928 90.3398 81.5551 90.1797 81.5551 90C81.5551 89.8229 81.5928 89.6562 81.6684 89.5C81.7465 89.3438 81.8572 89.2057 82.0004 89.0859C82.1462 88.9635 82.3233 88.8685 82.5316 88.8008C82.7426 88.7305 82.9796 88.6953 83.2426 88.6953C83.6098 88.6953 83.9249 88.7539 84.1879 88.8711C84.4535 88.9883 84.6566 89.1497 84.7973 89.3555C84.9405 89.5586 85.0121 89.7904 85.0121 90.0508H83.8871C83.8871 89.9414 83.8637 89.8438 83.8168 89.7578C83.7725 89.6693 83.7022 89.6003 83.6059 89.5508C83.5121 89.4987 83.3897 89.4727 83.2387 89.4727C83.1137 89.4727 83.0056 89.4948 82.9144 89.5391C82.8233 89.5807 82.753 89.638 82.7035 89.7109C82.6566 89.7812 82.6332 89.8594 82.6332 89.9453C82.6332 90.0104 82.6462 90.069 82.6723 90.1211C82.7009 90.1706 82.7465 90.2161 82.809 90.2578C82.8715 90.2995 82.9522 90.3385 83.0512 90.375C83.1527 90.4089 83.2777 90.4401 83.4262 90.4688C83.7309 90.5312 84.003 90.6133 84.2426 90.7148C84.4822 90.8138 84.6723 90.9492 84.8129 91.1211C84.9535 91.2904 85.0238 91.513 85.0238 91.7891C85.0238 91.9766 84.9822 92.1484 84.8988 92.3047C84.8155 92.4609 84.6957 92.5977 84.5394 92.7148C84.3832 92.8294 84.1957 92.9193 83.9769 92.9844C83.7608 93.0469 83.5173 93.0781 83.2465 93.0781C82.8532 93.0781 82.5199 93.0078 82.2465 92.8672C81.9756 92.7266 81.7699 92.5482 81.6293 92.332C81.4913 92.1133 81.4223 91.8893 81.4223 91.6602H82.4887C82.4939 91.8138 82.5329 91.9375 82.6059 92.0312C82.6814 92.125 82.7764 92.1927 82.891 92.2344C83.0082 92.276 83.1345 92.2969 83.2699 92.2969C83.4157 92.2969 83.5368 92.2773 83.6332 92.2383C83.7296 92.1966 83.8025 92.1419 83.8519 92.0742C83.904 92.0039 83.9301 91.9232 83.9301 91.832ZM86.7282 92.5234L87.8493 88.7734H89.0563L87.3571 93.6367C87.3206 93.7435 87.2712 93.8581 87.2087 93.9805C87.1488 94.1029 87.0667 94.2188 86.9626 94.3281C86.861 94.4401 86.7321 94.5312 86.5759 94.6016C86.4222 94.6719 86.2334 94.707 86.0094 94.707C85.9027 94.707 85.8154 94.7005 85.7477 94.6875C85.68 94.6745 85.5993 94.6562 85.5055 94.6328V93.8086C85.5342 93.8086 85.5641 93.8086 85.5954 93.8086C85.6266 93.8112 85.6566 93.8125 85.6852 93.8125C85.8337 93.8125 85.9548 93.7956 86.0485 93.7617C86.1423 93.7279 86.2178 93.6758 86.2751 93.6055C86.3324 93.5378 86.3779 93.4492 86.4118 93.3398L86.7282 92.5234ZM86.2594 88.7734L87.1774 91.8359L87.3376 93.0273L86.5719 93.1094L85.0524 88.7734H86.2594ZM44.0868 96.3125H46.2079C46.6428 96.3125 47.0165 96.3776 47.329 96.5078C47.6441 96.638 47.8863 96.8307 48.0555 97.0859C48.2248 97.3411 48.3094 97.6549 48.3094 98.0273C48.3094 98.332 48.2574 98.5938 48.1532 98.8125C48.0516 99.0286 47.9071 99.2096 47.7196 99.3555C47.5347 99.4987 47.3173 99.6133 47.0673 99.6992L46.6962 99.8945H44.8524L44.8446 98.9805H46.2157C46.4214 98.9805 46.592 98.944 46.7274 98.8711C46.8628 98.7982 46.9644 98.6966 47.0321 98.5664C47.1024 98.4362 47.1376 98.2852 47.1376 98.1133C47.1376 97.931 47.1037 97.7734 47.036 97.6406C46.9683 97.5078 46.8654 97.4062 46.7274 97.3359C46.5894 97.2656 46.4162 97.2305 46.2079 97.2305H45.2587V102H44.0868V96.3125ZM47.2665 102L45.9696 99.4648L47.2079 99.457L48.5204 101.945V102H47.2665ZM50.8068 102.078C50.4787 102.078 50.1844 102.026 49.924 101.922C49.6636 101.815 49.4422 101.668 49.2599 101.48C49.0802 101.293 48.9422 101.076 48.8459 100.828C48.7495 100.578 48.7013 100.312 48.7013 100.031V99.875C48.7013 99.5547 48.7469 99.2617 48.838 98.9961C48.9292 98.7305 49.0594 98.5 49.2287 98.3047C49.4005 98.1094 49.6089 97.9596 49.8537 97.8555C50.0985 97.7487 50.3745 97.6953 50.6818 97.6953C50.9813 97.6953 51.2469 97.7448 51.4787 97.8438C51.7104 97.9427 51.9044 98.0833 52.0607 98.2656C52.2196 98.4479 52.3393 98.6667 52.4201 98.9219C52.5008 99.1745 52.5412 99.4557 52.5412 99.7656V100.234H49.1818V99.4844H51.4357V99.3984C51.4357 99.2422 51.4071 99.1029 51.3498 98.9805C51.2951 98.8555 51.2117 98.7565 51.0998 98.6836C50.9878 98.6107 50.8446 98.5742 50.6701 98.5742C50.5216 98.5742 50.394 98.6068 50.2873 98.6719C50.1805 98.737 50.0933 98.8281 50.0255 98.9453C49.9604 99.0625 49.911 99.2005 49.8771 99.3594C49.8459 99.5156 49.8302 99.6875 49.8302 99.875V100.031C49.8302 100.201 49.8537 100.357 49.9005 100.5C49.95 100.643 50.019 100.767 50.1076 100.871C50.1987 100.975 50.3081 101.056 50.4357 101.113C50.5659 101.171 50.713 101.199 50.8771 101.199C51.0802 101.199 51.269 101.16 51.4435 101.082C51.6206 101.001 51.7729 100.88 51.9005 100.719L52.4474 101.312C52.3589 101.44 52.2378 101.562 52.0841 101.68C51.9331 101.797 51.7508 101.893 51.5373 101.969C51.3237 102.042 51.0802 102.078 50.8068 102.078ZM55.1869 100.832C55.1869 100.751 55.1635 100.678 55.1166 100.613C55.0698 100.548 54.9825 100.488 54.8549 100.434C54.7299 100.376 54.5489 100.324 54.3119 100.277C54.0984 100.23 53.8992 100.172 53.7143 100.102C53.532 100.029 53.3731 99.9414 53.2377 99.8398C53.1049 99.7383 53.0007 99.6185 52.9252 99.4805C52.8497 99.3398 52.8119 99.1797 52.8119 99C52.8119 98.8229 52.8497 98.6562 52.9252 98.5C53.0034 98.3438 53.114 98.2057 53.2573 98.0859C53.4031 97.9635 53.5802 97.8685 53.7885 97.8008C53.9994 97.7305 54.2364 97.6953 54.4994 97.6953C54.8666 97.6953 55.1817 97.7539 55.4448 97.8711C55.7104 97.9883 55.9135 98.1497 56.0541 98.3555C56.1974 98.5586 56.269 98.7904 56.269 99.0508H55.144C55.144 98.9414 55.1205 98.8438 55.0737 98.7578C55.0294 98.6693 54.9591 98.6003 54.8627 98.5508C54.769 98.4987 54.6466 98.4727 54.4955 98.4727C54.3705 98.4727 54.2625 98.4948 54.1713 98.5391C54.0802 98.5807 54.0099 98.638 53.9604 98.7109C53.9135 98.7812 53.8901 98.8594 53.8901 98.9453C53.8901 99.0104 53.9031 99.069 53.9291 99.1211C53.9578 99.1706 54.0034 99.2161 54.0659 99.2578C54.1284 99.2995 54.2091 99.3385 54.308 99.375C54.4096 99.4089 54.5346 99.4401 54.683 99.4688C54.9877 99.5312 55.2599 99.6133 55.4994 99.7148C55.739 99.8138 55.9291 99.9492 56.0698 100.121C56.2104 100.29 56.2807 100.513 56.2807 100.789C56.2807 100.977 56.239 101.148 56.1557 101.305C56.0724 101.461 55.9526 101.598 55.7963 101.715C55.6401 101.829 55.4526 101.919 55.2338 101.984C55.0177 102.047 54.7742 102.078 54.5034 102.078C54.1101 102.078 53.7768 102.008 53.5034 101.867C53.2325 101.727 53.0268 101.548 52.8862 101.332C52.7481 101.113 52.6791 100.889 52.6791 100.66H53.7455C53.7507 100.814 53.7898 100.938 53.8627 101.031C53.9382 101.125 54.0333 101.193 54.1479 101.234C54.2651 101.276 54.3914 101.297 54.5268 101.297C54.6726 101.297 54.7937 101.277 54.8901 101.238C54.9864 101.197 55.0593 101.142 55.1088 101.074C55.1609 101.004 55.1869 100.923 55.1869 100.832ZM58.8015 97.7734V98.5703H56.3405V97.7734H58.8015ZM56.9499 96.7305H58.0749V100.727C58.0749 100.849 58.0905 100.943 58.1218 101.008C58.1556 101.073 58.2051 101.118 58.2702 101.145C58.3353 101.168 58.4174 101.18 58.5163 101.18C58.5866 101.18 58.6491 101.177 58.7038 101.172C58.7611 101.164 58.8093 101.156 58.8484 101.148L58.8523 101.977C58.7559 102.008 58.6517 102.033 58.5398 102.051C58.4278 102.069 58.3041 102.078 58.1687 102.078C57.9213 102.078 57.7051 102.038 57.5202 101.957C57.3379 101.874 57.1973 101.741 57.0984 101.559C56.9994 101.376 56.9499 101.137 56.9499 100.84V96.7305ZM61.4434 101.047V99.1641C61.4434 99.0286 61.4212 98.9128 61.3769 98.8164C61.3327 98.7174 61.2637 98.6406 61.1699 98.5859C61.0788 98.5312 60.9603 98.5039 60.8144 98.5039C60.6894 98.5039 60.5814 98.526 60.4902 98.5703C60.3991 98.612 60.3288 98.6732 60.2793 98.7539C60.2298 98.832 60.2051 98.9245 60.2051 99.0312H59.0801C59.0801 98.8516 59.1217 98.681 59.2051 98.5195C59.2884 98.3581 59.4095 98.2161 59.5684 98.0938C59.7272 97.9688 59.916 97.8711 60.1348 97.8008C60.3561 97.7305 60.6035 97.6953 60.8769 97.6953C61.2051 97.6953 61.4967 97.75 61.7519 97.8594C62.0072 97.9688 62.2077 98.1328 62.3535 98.3516C62.5019 98.5703 62.5762 98.8438 62.5762 99.1719V100.98C62.5762 101.212 62.5905 101.402 62.6191 101.551C62.6478 101.697 62.6894 101.824 62.7441 101.934V102H61.6074C61.5527 101.885 61.5111 101.742 61.4824 101.57C61.4564 101.396 61.4434 101.221 61.4434 101.047ZM61.5918 99.4258L61.5996 100.062H60.9707C60.8223 100.062 60.6934 100.079 60.584 100.113C60.4746 100.147 60.3848 100.195 60.3144 100.258C60.2441 100.318 60.1921 100.388 60.1582 100.469C60.1269 100.549 60.1113 100.638 60.1113 100.734C60.1113 100.831 60.1335 100.918 60.1777 100.996C60.222 101.072 60.2858 101.132 60.3691 101.176C60.4525 101.217 60.5501 101.238 60.6621 101.238C60.8314 101.238 60.9785 101.204 61.1035 101.137C61.2285 101.069 61.3249 100.986 61.3926 100.887C61.4629 100.788 61.4993 100.694 61.5019 100.605L61.7988 101.082C61.7572 101.189 61.6999 101.299 61.6269 101.414C61.5566 101.529 61.4668 101.637 61.3574 101.738C61.248 101.837 61.1165 101.919 60.9629 101.984C60.8092 102.047 60.6269 102.078 60.416 102.078C60.1478 102.078 59.9043 102.025 59.6855 101.918C59.4694 101.809 59.2975 101.659 59.1699 101.469C59.0449 101.276 58.9824 101.057 58.9824 100.812C58.9824 100.591 59.0241 100.395 59.1074 100.223C59.1908 100.051 59.3131 99.9062 59.4746 99.7891C59.6387 99.6693 59.8431 99.5794 60.0879 99.5195C60.3327 99.457 60.6165 99.4258 60.9394 99.4258H61.5918ZM65.6634 100.988V97.7734H66.7884V102H65.7298L65.6634 100.988ZM65.7884 100.121L66.1204 100.113C66.1204 100.395 66.0878 100.656 66.0227 100.898C65.9576 101.138 65.86 101.346 65.7298 101.523C65.5996 101.698 65.4355 101.835 65.2376 101.934C65.0397 102.03 64.8066 102.078 64.5384 102.078C64.3326 102.078 64.1425 102.049 63.968 101.992C63.7962 101.932 63.6477 101.84 63.5227 101.715C63.4003 101.587 63.304 101.424 63.2337 101.227C63.166 101.026 63.1321 100.785 63.1321 100.504V97.7734H64.2571V100.512C64.2571 100.637 64.2714 100.742 64.3001 100.828C64.3313 100.914 64.3743 100.984 64.429 101.039C64.4837 101.094 64.5475 101.133 64.6204 101.156C64.6959 101.18 64.7792 101.191 64.8704 101.191C65.1022 101.191 65.2844 101.145 65.4173 101.051C65.5527 100.957 65.6477 100.829 65.7024 100.668C65.7597 100.504 65.7884 100.322 65.7884 100.121ZM68.4927 98.6953V102H67.3677V97.7734H68.4263L68.4927 98.6953ZM69.7662 97.7461L69.7466 98.7891C69.6919 98.7812 69.6255 98.7747 69.5474 98.7695C69.4719 98.7617 69.4029 98.7578 69.3404 98.7578C69.1815 98.7578 69.0435 98.7786 68.9263 98.8203C68.8117 98.8594 68.7154 98.918 68.6373 98.9961C68.5617 99.0742 68.5044 99.1693 68.4654 99.2812C68.4289 99.3932 68.4081 99.5208 68.4029 99.6641L68.1763 99.5938C68.1763 99.3203 68.2037 99.069 68.2584 98.8398C68.313 98.6081 68.3925 98.4062 68.4966 98.2344C68.6034 98.0625 68.7336 97.9297 68.8873 97.8359C69.0409 97.7422 69.2167 97.6953 69.4146 97.6953C69.4771 97.6953 69.5409 97.7005 69.606 97.7109C69.6711 97.7188 69.7245 97.7305 69.7662 97.7461ZM72.1659 101.047V99.1641C72.1659 99.0286 72.1437 98.9128 72.0994 98.8164C72.0552 98.7174 71.9862 98.6406 71.8924 98.5859C71.8013 98.5312 71.6828 98.5039 71.5369 98.5039C71.4119 98.5039 71.3039 98.526 71.2127 98.5703C71.1216 98.612 71.0513 98.6732 71.0018 98.7539C70.9523 98.832 70.9276 98.9245 70.9276 99.0312H69.8026C69.8026 98.8516 69.8442 98.681 69.9276 98.5195C70.0109 98.3581 70.132 98.2161 70.2909 98.0938C70.4497 97.9688 70.6385 97.8711 70.8573 97.8008C71.0786 97.7305 71.326 97.6953 71.5994 97.6953C71.9276 97.6953 72.2192 97.75 72.4744 97.8594C72.7297 97.9688 72.9302 98.1328 73.076 98.3516C73.2244 98.5703 73.2987 98.8438 73.2987 99.1719V100.98C73.2987 101.212 73.313 101.402 73.3416 101.551C73.3703 101.697 73.4119 101.824 73.4666 101.934V102H72.3299C72.2752 101.885 72.2336 101.742 72.2049 101.57C72.1789 101.396 72.1659 101.221 72.1659 101.047ZM72.3143 99.4258L72.3221 100.062H71.6932C71.5448 100.062 71.4159 100.079 71.3065 100.113C71.1971 100.147 71.1073 100.195 71.0369 100.258C70.9666 100.318 70.9146 100.388 70.8807 100.469C70.8494 100.549 70.8338 100.638 70.8338 100.734C70.8338 100.831 70.856 100.918 70.9002 100.996C70.9445 101.072 71.0083 101.132 71.0916 101.176C71.175 101.217 71.2726 101.238 71.3846 101.238C71.5539 101.238 71.701 101.204 71.826 101.137C71.951 101.069 72.0474 100.986 72.1151 100.887C72.1854 100.788 72.2218 100.694 72.2244 100.605L72.5213 101.082C72.4797 101.189 72.4224 101.299 72.3494 101.414C72.2791 101.529 72.1893 101.637 72.0799 101.738C71.9705 101.837 71.839 101.919 71.6854 101.984C71.5317 102.047 71.3494 102.078 71.1385 102.078C70.8703 102.078 70.6268 102.025 70.408 101.918C70.1919 101.809 70.02 101.659 69.8924 101.469C69.7674 101.276 69.7049 101.057 69.7049 100.812C69.7049 100.591 69.7466 100.395 69.8299 100.223C69.9133 100.051 70.0356 99.9062 70.1971 99.7891C70.3612 99.6693 70.5656 99.5794 70.8104 99.5195C71.0552 99.457 71.339 99.4258 71.6619 99.4258H72.3143ZM74.9874 98.6758V102H73.8624V97.7734H74.9171L74.9874 98.6758ZM74.8234 99.7383H74.5187C74.5187 99.4258 74.559 99.1445 74.6398 98.8945C74.7205 98.6419 74.8338 98.4271 74.9796 98.25C75.1254 98.0703 75.2986 97.9336 75.4991 97.8398C75.7023 97.7435 75.9288 97.6953 76.1788 97.6953C76.3767 97.6953 76.5577 97.724 76.7218 97.7812C76.8859 97.8385 77.0265 97.9297 77.1437 98.0547C77.2635 98.1797 77.3546 98.3451 77.4171 98.5508C77.4822 98.7565 77.5148 99.0078 77.5148 99.3047V102H76.3819V99.3008C76.3819 99.1133 76.3559 98.9674 76.3038 98.8633C76.2517 98.7591 76.1749 98.6862 76.0734 98.6445C75.9744 98.6003 75.852 98.5781 75.7062 98.5781C75.5551 98.5781 75.4236 98.6081 75.3116 98.668C75.2023 98.7279 75.1111 98.8112 75.0382 98.918C74.9679 99.0221 74.9145 99.1445 74.878 99.2852C74.8416 99.4258 74.8234 99.5768 74.8234 99.7383ZM80.1605 97.7734V98.5703H77.6996V97.7734H80.1605ZM78.309 96.7305H79.434V100.727C79.434 100.849 79.4496 100.943 79.4809 101.008C79.5147 101.073 79.5642 101.118 79.6293 101.145C79.6944 101.168 79.7764 101.18 79.8754 101.18C79.9457 101.18 80.0082 101.177 80.0629 101.172C80.1202 101.164 80.1684 101.156 80.2074 101.148L80.2113 101.977C80.115 102.008 80.0108 102.033 79.8988 102.051C79.7868 102.069 79.6631 102.078 79.5277 102.078C79.2803 102.078 79.0642 102.038 78.8793 101.957C78.697 101.874 78.5564 101.741 78.4574 101.559C78.3585 101.376 78.309 101.137 78.309 100.84V96.7305Z" fill="black"/>
<path d="M65.3256 36.068L35.0203 1.99372C33.2998 0.0591965 34.6731 -3 37.262 -3H49.2279C50.1639 -3 51.0462 -2.56314 51.6137 -1.81877L64.9134 15.6273C65.4808 16.3717 66.3632 16.8085 67.2992 16.8085H70.7439C71.7514 16.8085 72.6916 16.3028 73.247 15.4622L77.3273 9.28635C78.2088 7.95211 79.982 7.54386 81.3582 8.35828L99.1377 18.8797C99.7232 19.2262 100.173 19.7614 100.415 20.3974L105.132 32.8326C105.418 33.5861 105.389 34.4229 105.051 35.1545L100.847 44.2578C100.356 45.3199 99.293 46 98.1231 46H91.0297C90.6651 46 90.3037 45.9336 89.963 45.804L66.5006 36.8783C66.0494 36.7066 65.6464 36.4287 65.3256 36.068Z" fill="#6D92D8" fill-opacity="0.49"/>
<circle cx="139.079" cy="38.5" r="1.5" fill="#222222"/>
<path d="M73.3541 37.876V39.4375C73.3013 39.5156 73.2173 39.6035 73.1021 39.7012C72.9869 39.7969 72.8277 39.8809 72.6246 39.9531C72.4234 40.0234 72.1636 40.0586 71.8453 40.0586C71.5855 40.0586 71.3462 40.0137 71.1275 39.9238C70.9107 39.832 70.7222 39.6992 70.5621 39.5254C70.4039 39.3496 70.2808 39.1367 70.1929 38.8867C70.107 38.6348 70.064 38.3496 70.064 38.0312V37.7002C70.064 37.3818 70.1011 37.0977 70.1753 36.8477C70.2515 36.5977 70.3628 36.3857 70.5093 36.2119C70.6558 36.0361 70.8355 35.9033 71.0484 35.8135C71.2613 35.7217 71.5054 35.6758 71.7808 35.6758C72.107 35.6758 72.3794 35.7324 72.5982 35.8457C72.8189 35.957 72.9908 36.1113 73.1138 36.3086C73.2388 36.5059 73.3189 36.7305 73.3541 36.9824H72.7886C72.7632 36.8281 72.7125 36.6875 72.6363 36.5605C72.5621 36.4336 72.4556 36.332 72.3169 36.2559C72.1783 36.1777 71.9996 36.1387 71.7808 36.1387C71.5835 36.1387 71.4127 36.1748 71.2681 36.2471C71.1236 36.3193 71.0044 36.4229 70.9107 36.5576C70.8169 36.6924 70.7466 36.8555 70.6998 37.0469C70.6548 37.2383 70.6324 37.4541 70.6324 37.6943V38.0312C70.6324 38.2773 70.6607 38.4971 70.7173 38.6904C70.7759 38.8838 70.8589 39.0488 70.9664 39.1855C71.0738 39.3203 71.2017 39.4229 71.3502 39.4932C71.5005 39.5635 71.6666 39.5986 71.8482 39.5986C72.0494 39.5986 72.2125 39.582 72.3375 39.5488C72.4625 39.5137 72.5601 39.4727 72.6304 39.4258C72.7007 39.377 72.7544 39.3311 72.7916 39.2881V38.333H71.8043V37.876H73.3541ZM75.9587 39.458V37.8262C75.9587 37.7012 75.9333 37.5928 75.8825 37.501C75.8337 37.4072 75.7594 37.335 75.6598 37.2842C75.5602 37.2334 75.4372 37.208 75.2907 37.208C75.154 37.208 75.0339 37.2314 74.9303 37.2783C74.8288 37.3252 74.7487 37.3867 74.6901 37.4629C74.6335 37.5391 74.6052 37.6211 74.6052 37.709H74.0632C74.0632 37.5957 74.0925 37.4834 74.151 37.3721C74.2096 37.2607 74.2936 37.1602 74.403 37.0703C74.5143 36.9785 74.6471 36.9062 74.8014 36.8535C74.9577 36.7988 75.1315 36.7715 75.3229 36.7715C75.5534 36.7715 75.7565 36.8105 75.9323 36.8887C76.11 36.9668 76.2487 37.085 76.3483 37.2432C76.4499 37.3994 76.5007 37.5957 76.5007 37.832V39.3086C76.5007 39.4141 76.5094 39.5264 76.527 39.6455C76.5466 39.7646 76.5749 39.8672 76.612 39.9531V40H76.0466C76.0192 39.9375 75.9977 39.8545 75.9821 39.751C75.9665 39.6455 75.9587 39.5479 75.9587 39.458ZM76.0524 38.0781L76.0583 38.459H75.5104C75.3561 38.459 75.2184 38.4717 75.0973 38.4971C74.9762 38.5205 74.8747 38.5566 74.7927 38.6055C74.7106 38.6543 74.6481 38.7158 74.6052 38.79C74.5622 38.8623 74.5407 38.9473 74.5407 39.0449C74.5407 39.1445 74.5632 39.2354 74.6081 39.3174C74.653 39.3994 74.7204 39.4648 74.8102 39.5137C74.902 39.5605 75.0143 39.584 75.1471 39.584C75.3132 39.584 75.4596 39.5488 75.5866 39.4785C75.7135 39.4082 75.8141 39.3223 75.8884 39.2207C75.9645 39.1191 76.0055 39.0205 76.0114 38.9248L76.2428 39.1855C76.2292 39.2676 76.1921 39.3584 76.1315 39.458C76.071 39.5576 75.9899 39.6533 75.8884 39.7451C75.7887 39.835 75.6696 39.9102 75.5309 39.9707C75.3942 40.0293 75.2399 40.0586 75.068 40.0586C74.8532 40.0586 74.6647 40.0166 74.5026 39.9326C74.3425 39.8486 74.2175 39.7363 74.1276 39.5957C74.0397 39.4531 73.9958 39.2939 73.9958 39.1182C73.9958 38.9482 74.029 38.7988 74.0954 38.6699C74.1618 38.5391 74.2575 38.4307 74.3825 38.3447C74.5075 38.2568 74.6579 38.1904 74.8337 38.1455C75.0094 38.1006 75.2057 38.0781 75.4225 38.0781H76.0524ZM77.7752 37.3281V40H77.2332V36.8301H77.7605L77.7752 37.3281ZM78.7654 36.8125L78.7625 37.3164C78.7176 37.3066 78.6746 37.3008 78.6336 37.2988C78.5945 37.2949 78.5496 37.293 78.4988 37.293C78.3738 37.293 78.2635 37.3125 78.1678 37.3516C78.0721 37.3906 77.991 37.4453 77.9246 37.5156C77.8582 37.5859 77.8055 37.6699 77.7664 37.7676C77.7293 37.8633 77.7049 37.9688 77.6932 38.084L77.5408 38.1719C77.5408 37.9805 77.5594 37.8008 77.5965 37.6328C77.6355 37.4648 77.6951 37.3164 77.7752 37.1875C77.8553 37.0566 77.9568 36.9551 78.0799 36.8828C78.2049 36.8086 78.3533 36.7715 78.5252 36.7715C78.5643 36.7715 78.6092 36.7764 78.66 36.7861C78.7107 36.7939 78.7459 36.8027 78.7654 36.8125ZM81.0859 39.3848V35.5H81.6308V40H81.1327L81.0859 39.3848ZM78.953 38.4502V38.3887C78.953 38.1465 78.9823 37.9268 79.0409 37.7295C79.1015 37.5303 79.1864 37.3594 79.2958 37.2168C79.4071 37.0742 79.539 36.9648 79.6913 36.8887C79.8456 36.8105 80.0175 36.7715 80.2069 36.7715C80.4062 36.7715 80.58 36.8066 80.7284 36.877C80.8788 36.9453 81.0058 37.0459 81.1093 37.1787C81.2148 37.3096 81.2978 37.4678 81.3583 37.6533C81.4189 37.8389 81.4609 38.0488 81.4843 38.2832V38.5527C81.4628 38.7852 81.4208 38.9941 81.3583 39.1797C81.2978 39.3652 81.2148 39.5234 81.1093 39.6543C81.0058 39.7852 80.8788 39.8857 80.7284 39.9561C80.578 40.0244 80.4023 40.0586 80.2011 40.0586C80.0155 40.0586 79.8456 40.0186 79.6913 39.9385C79.539 39.8584 79.4071 39.7461 79.2958 39.6016C79.1864 39.457 79.1015 39.2871 79.0409 39.0918C78.9823 38.8945 78.953 38.6807 78.953 38.4502ZM79.498 38.3887V38.4502C79.498 38.6084 79.5136 38.7568 79.5448 38.8955C79.578 39.0342 79.6288 39.1562 79.6972 39.2617C79.7655 39.3672 79.8525 39.4502 79.9579 39.5107C80.0634 39.5693 80.1894 39.5986 80.3359 39.5986C80.5155 39.5986 80.663 39.5605 80.7782 39.4844C80.8954 39.4082 80.9892 39.3076 81.0595 39.1826C81.1298 39.0576 81.1845 38.9219 81.2235 38.7754V38.0693C81.2001 37.9619 81.1659 37.8584 81.121 37.7588C81.078 37.6572 81.0214 37.5674 80.9511 37.4893C80.8827 37.4092 80.7978 37.3457 80.6962 37.2988C80.5966 37.252 80.4784 37.2285 80.3417 37.2285C80.1933 37.2285 80.0653 37.2598 79.9579 37.3223C79.8525 37.3828 79.7655 37.4668 79.6972 37.5742C79.6288 37.6797 79.578 37.8027 79.5448 37.9434C79.5136 38.082 79.498 38.2305 79.498 38.3887ZM83.67 40.0586C83.4493 40.0586 83.2491 40.0215 83.0694 39.9473C82.8916 39.8711 82.7383 39.7646 82.6094 39.6279C82.4825 39.4912 82.3848 39.3291 82.3164 39.1416C82.2481 38.9541 82.2139 38.749 82.2139 38.5264V38.4033C82.2139 38.1455 82.252 37.916 82.3282 37.7148C82.4043 37.5117 82.5078 37.3398 82.6387 37.1992C82.7696 37.0586 82.918 36.9521 83.084 36.8799C83.25 36.8076 83.4219 36.7715 83.5996 36.7715C83.8262 36.7715 84.0215 36.8105 84.1856 36.8887C84.3516 36.9668 84.4873 37.0762 84.5928 37.2168C84.6983 37.3555 84.7764 37.5195 84.8272 37.709C84.878 37.8965 84.9034 38.1016 84.9034 38.3242V38.5674H82.5362V38.125H84.3614V38.084C84.3535 37.9434 84.3243 37.8066 84.2735 37.6738C84.2246 37.541 84.1465 37.4316 84.0391 37.3457C83.9317 37.2598 83.7852 37.2168 83.5996 37.2168C83.4766 37.2168 83.3633 37.2432 83.2598 37.2959C83.1563 37.3467 83.0674 37.4229 82.9932 37.5244C82.919 37.626 82.8614 37.75 82.8203 37.8965C82.7793 38.043 82.7588 38.2119 82.7588 38.4033V38.5264C82.7588 38.6768 82.7793 38.8184 82.8203 38.9512C82.8633 39.082 82.9248 39.1973 83.0049 39.2969C83.0869 39.3965 83.1856 39.4746 83.3008 39.5312C83.418 39.5879 83.5508 39.6162 83.6993 39.6162C83.8907 39.6162 84.0528 39.5771 84.1856 39.499C84.3184 39.4209 84.4346 39.3164 84.5342 39.1855L84.8623 39.4463C84.794 39.5498 84.7071 39.6484 84.6016 39.7422C84.4961 39.8359 84.3662 39.9121 84.2119 39.9707C84.0596 40.0293 83.8789 40.0586 83.67 40.0586ZM85.9582 37.5068V40H85.4162V36.8301H85.9289L85.9582 37.5068ZM85.8293 38.2949L85.6037 38.2861C85.6056 38.0693 85.6378 37.8691 85.7003 37.6855C85.7628 37.5 85.8507 37.3389 85.964 37.2021C86.0773 37.0654 86.2121 36.96 86.3683 36.8857C86.5265 36.8096 86.7013 36.7715 86.8927 36.7715C87.049 36.7715 87.1896 36.793 87.3146 36.8359C87.4396 36.877 87.546 36.9434 87.6339 37.0352C87.7238 37.127 87.7921 37.2461 87.839 37.3926C87.8859 37.5371 87.9093 37.7139 87.9093 37.9229V40H87.3644V37.917C87.3644 37.751 87.34 37.6182 87.2912 37.5186C87.2423 37.417 87.171 37.3438 87.0773 37.2988C86.9835 37.252 86.8683 37.2285 86.7316 37.2285C86.5968 37.2285 86.4738 37.2568 86.3625 37.3135C86.2531 37.3701 86.1584 37.4482 86.0783 37.5479C86.0002 37.6475 85.9386 37.7617 85.8937 37.8906C85.8507 38.0176 85.8293 38.1523 85.8293 38.2949ZM92.6381 38.6436H93.2006C93.1713 38.9131 93.0941 39.1543 92.9691 39.3672C92.8441 39.5801 92.6674 39.749 92.4389 39.874C92.2103 39.9971 91.9252 40.0586 91.5834 40.0586C91.3334 40.0586 91.1059 40.0117 90.9008 39.918C90.6977 39.8242 90.5228 39.6914 90.3764 39.5195C90.2299 39.3457 90.1166 39.1377 90.0365 38.8955C89.9584 38.6514 89.9193 38.3799 89.9193 38.0811V37.6562C89.9193 37.3574 89.9584 37.0869 90.0365 36.8447C90.1166 36.6006 90.2309 36.3916 90.3793 36.2178C90.5297 36.0439 90.7103 35.9102 90.9213 35.8164C91.1322 35.7227 91.3695 35.6758 91.6332 35.6758C91.9555 35.6758 92.2279 35.7363 92.4506 35.8574C92.6732 35.9785 92.8461 36.1465 92.9691 36.3613C93.0941 36.5742 93.1713 36.8213 93.2006 37.1025H92.6381C92.6107 36.9033 92.56 36.7324 92.4857 36.5898C92.4115 36.4453 92.306 36.334 92.1693 36.2559C92.0326 36.1777 91.8539 36.1387 91.6332 36.1387C91.4437 36.1387 91.2768 36.1748 91.1322 36.2471C90.9896 36.3193 90.8695 36.4219 90.7719 36.5547C90.6762 36.6875 90.6039 36.8467 90.5551 37.0322C90.5062 37.2178 90.4818 37.4238 90.4818 37.6504V38.0811C90.4818 38.29 90.5033 38.4863 90.5463 38.6699C90.5912 38.8535 90.6586 39.0146 90.7484 39.1533C90.8383 39.292 90.9525 39.4014 91.0912 39.4814C91.2299 39.5596 91.3939 39.5986 91.5834 39.5986C91.8236 39.5986 92.015 39.5605 92.1576 39.4844C92.3002 39.4082 92.4076 39.2988 92.4799 39.1562C92.5541 39.0137 92.6068 38.8428 92.6381 38.6436ZM95.6382 39.458V37.8262C95.6382 37.7012 95.6128 37.5928 95.562 37.501C95.5132 37.4072 95.439 37.335 95.3394 37.2842C95.2398 37.2334 95.1167 37.208 94.9702 37.208C94.8335 37.208 94.7134 37.2314 94.6099 37.2783C94.5083 37.3252 94.4282 37.3867 94.3696 37.4629C94.313 37.5391 94.2847 37.6211 94.2847 37.709H93.7427C93.7427 37.5957 93.772 37.4834 93.8306 37.3721C93.8892 37.2607 93.9732 37.1602 94.0825 37.0703C94.1939 36.9785 94.3267 36.9062 94.481 36.8535C94.6372 36.7988 94.8111 36.7715 95.0025 36.7715C95.2329 36.7715 95.4361 36.8105 95.6118 36.8887C95.7896 36.9668 95.9282 37.085 96.0278 37.2432C96.1294 37.3994 96.1802 37.5957 96.1802 37.832V39.3086C96.1802 39.4141 96.189 39.5264 96.2066 39.6455C96.2261 39.7646 96.2544 39.8672 96.2915 39.9531V40H95.7261C95.6987 39.9375 95.6773 39.8545 95.6616 39.751C95.646 39.6455 95.6382 39.5479 95.6382 39.458ZM95.7319 38.0781L95.7378 38.459H95.19C95.0357 38.459 94.898 38.4717 94.7769 38.4971C94.6558 38.5205 94.5542 38.5566 94.4722 38.6055C94.3902 38.6543 94.3277 38.7158 94.2847 38.79C94.2417 38.8623 94.2202 38.9473 94.2202 39.0449C94.2202 39.1445 94.2427 39.2354 94.2876 39.3174C94.3325 39.3994 94.3999 39.4648 94.4898 39.5137C94.5816 39.5605 94.6939 39.584 94.8267 39.584C94.9927 39.584 95.1392 39.5488 95.2661 39.4785C95.3931 39.4082 95.4937 39.3223 95.5679 39.2207C95.6441 39.1191 95.6851 39.0205 95.6909 38.9248L95.9224 39.1855C95.9087 39.2676 95.8716 39.3584 95.8111 39.458C95.7505 39.5576 95.6694 39.6533 95.5679 39.7451C95.4683 39.835 95.3491 39.9102 95.2105 39.9707C95.0737 40.0293 94.9194 40.0586 94.7476 40.0586C94.5327 40.0586 94.3443 40.0166 94.1821 39.9326C94.022 39.8486 93.897 39.7363 93.8071 39.5957C93.7193 39.4531 93.6753 39.2939 93.6753 39.1182C93.6753 38.9482 93.7085 38.7988 93.7749 38.6699C93.8413 38.5391 93.937 38.4307 94.062 38.3447C94.187 38.2568 94.3374 38.1904 94.5132 38.1455C94.689 38.1006 94.8853 38.0781 95.1021 38.0781H95.7319ZM97.7213 40H97.1793V36.4961C97.1793 36.2676 97.2203 36.0752 97.3024 35.9189C97.3864 35.7607 97.5065 35.6416 97.6627 35.5615C97.819 35.4795 98.0045 35.4385 98.2194 35.4385C98.2819 35.4385 98.3444 35.4424 98.4069 35.4502C98.4713 35.458 98.5338 35.4697 98.5944 35.4854L98.5651 35.9277C98.5241 35.918 98.4772 35.9111 98.4244 35.9072C98.3737 35.9033 98.3229 35.9014 98.2721 35.9014C98.1569 35.9014 98.0573 35.9248 97.9733 35.9717C97.8912 36.0166 97.8287 36.083 97.7858 36.1709C97.7428 36.2588 97.7213 36.3672 97.7213 36.4961V40ZM98.3952 36.8301V37.2461H96.6784V36.8301H98.3952ZM100.124 40.0586C99.9031 40.0586 99.7029 40.0215 99.5232 39.9473C99.3455 39.8711 99.1921 39.7646 99.0632 39.6279C98.9363 39.4912 98.8386 39.3291 98.7703 39.1416C98.7019 38.9541 98.6677 38.749 98.6677 38.5264V38.4033C98.6677 38.1455 98.7058 37.916 98.782 37.7148C98.8582 37.5117 98.9617 37.3398 99.0925 37.1992C99.2234 37.0586 99.3718 36.9521 99.5378 36.8799C99.7039 36.8076 99.8757 36.7715 100.053 36.7715C100.28 36.7715 100.475 36.8105 100.639 36.8887C100.805 36.9668 100.941 37.0762 101.047 37.2168C101.152 37.3555 101.23 37.5195 101.281 37.709C101.332 37.8965 101.357 38.1016 101.357 38.3242V38.5674H98.99V38.125H100.815V38.084C100.807 37.9434 100.778 37.8066 100.727 37.6738C100.678 37.541 100.6 37.4316 100.493 37.3457C100.386 37.2598 100.239 37.2168 100.053 37.2168C99.9304 37.2168 99.8171 37.2432 99.7136 37.2959C99.6101 37.3467 99.5212 37.4229 99.447 37.5244C99.3728 37.626 99.3152 37.75 99.2742 37.8965C99.2332 38.043 99.2127 38.2119 99.2127 38.4033V38.5264C99.2127 38.6768 99.2332 38.8184 99.2742 38.9512C99.3171 39.082 99.3787 39.1973 99.4587 39.2969C99.5408 39.3965 99.6394 39.4746 99.7546 39.5312C99.8718 39.5879 100.005 39.6162 100.153 39.6162C100.344 39.6162 100.507 39.5771 100.639 39.499C100.772 39.4209 100.888 39.3164 100.988 39.1855L101.316 39.4463C101.248 39.5498 101.161 39.6484 101.055 39.7422C100.95 39.8359 100.82 39.9121 100.666 39.9707C100.513 40.0293 100.333 40.0586 100.124 40.0586ZM105.107 39.458V37.8262C105.107 37.7012 105.082 37.5928 105.031 37.501C104.982 37.4072 104.908 37.335 104.809 37.2842C104.709 37.2334 104.586 37.208 104.439 37.208C104.303 37.208 104.183 37.2314 104.079 37.2783C103.978 37.3252 103.897 37.3867 103.839 37.4629C103.782 37.5391 103.754 37.6211 103.754 37.709H103.212C103.212 37.5957 103.241 37.4834 103.3 37.3721C103.358 37.2607 103.442 37.1602 103.552 37.0703C103.663 36.9785 103.796 36.9062 103.95 36.8535C104.106 36.7988 104.28 36.7715 104.472 36.7715C104.702 36.7715 104.905 36.8105 105.081 36.8887C105.259 36.9668 105.397 37.085 105.497 37.2432C105.599 37.3994 105.649 37.5957 105.649 37.832V39.3086C105.649 39.4141 105.658 39.5264 105.676 39.6455C105.695 39.7646 105.724 39.8672 105.761 39.9531V40H105.195C105.168 39.9375 105.146 39.8545 105.131 39.751C105.115 39.6455 105.107 39.5479 105.107 39.458ZM105.201 38.0781L105.207 38.459H104.659C104.505 38.459 104.367 38.4717 104.246 38.4971C104.125 38.5205 104.023 38.5566 103.941 38.6055C103.859 38.6543 103.797 38.7158 103.754 38.79C103.711 38.8623 103.689 38.9473 103.689 39.0449C103.689 39.1445 103.712 39.2354 103.757 39.3174C103.802 39.3994 103.869 39.4648 103.959 39.5137C104.051 39.5605 104.163 39.584 104.296 39.584C104.462 39.584 104.608 39.5488 104.735 39.4785C104.862 39.4082 104.963 39.3223 105.037 39.2207C105.113 39.1191 105.154 39.0205 105.16 38.9248L105.392 39.1855C105.378 39.2676 105.341 39.3584 105.28 39.458C105.22 39.5576 105.139 39.6533 105.037 39.7451C104.937 39.835 104.818 39.9102 104.68 39.9707C104.543 40.0293 104.389 40.0586 104.217 40.0586C104.002 40.0586 103.813 40.0166 103.651 39.9326C103.491 39.8486 103.366 39.7363 103.276 39.5957C103.188 39.4531 103.145 39.2939 103.145 39.1182C103.145 38.9482 103.178 38.7988 103.244 38.6699C103.311 38.5391 103.406 38.4307 103.531 38.3447C103.656 38.2568 103.807 38.1904 103.982 38.1455C104.158 38.1006 104.354 38.0781 104.571 38.0781H105.201ZM107.709 36.8301V37.2461H105.995V36.8301H107.709ZM106.575 36.0596H107.117V39.2148C107.117 39.3223 107.134 39.4033 107.167 39.458C107.2 39.5127 107.243 39.5488 107.296 39.5664C107.349 39.584 107.405 39.5928 107.466 39.5928C107.511 39.5928 107.558 39.5889 107.607 39.5811C107.657 39.5713 107.695 39.5635 107.721 39.5576L107.724 40C107.681 40.0137 107.624 40.0264 107.554 40.0381C107.485 40.0518 107.402 40.0586 107.305 40.0586C107.172 40.0586 107.05 40.0322 106.939 39.9795C106.827 39.9268 106.738 39.8389 106.672 39.7158C106.608 39.5908 106.575 39.4229 106.575 39.2119V36.0596ZM111.052 39.3525L112.309 35.7344H112.921L111.342 40H110.906L111.052 39.3525ZM109.877 35.7344L111.122 39.3525L111.278 40H110.841L109.265 35.7344H109.877ZM115.028 39.458V37.8262C115.028 37.7012 115.002 37.5928 114.952 37.501C114.903 37.4072 114.829 37.335 114.729 37.2842C114.629 37.2334 114.506 37.208 114.36 37.208C114.223 37.208 114.103 37.2314 113.999 37.2783C113.898 37.3252 113.818 37.3867 113.759 37.4629C113.703 37.5391 113.674 37.6211 113.674 37.709H113.132C113.132 37.5957 113.162 37.4834 113.22 37.3721C113.279 37.2607 113.363 37.1602 113.472 37.0703C113.583 36.9785 113.716 36.9062 113.871 36.8535C114.027 36.7988 114.201 36.7715 114.392 36.7715C114.623 36.7715 114.826 36.8105 115.001 36.8887C115.179 36.9668 115.318 37.085 115.417 37.2432C115.519 37.3994 115.57 37.5957 115.57 37.832V39.3086C115.57 39.4141 115.579 39.5264 115.596 39.6455C115.616 39.7646 115.644 39.8672 115.681 39.9531V40H115.116C115.088 39.9375 115.067 39.8545 115.051 39.751C115.036 39.6455 115.028 39.5479 115.028 39.458ZM115.122 38.0781L115.127 38.459H114.58C114.425 38.459 114.288 38.4717 114.166 38.4971C114.045 38.5205 113.944 38.5566 113.862 38.6055C113.78 38.6543 113.717 38.7158 113.674 38.79C113.631 38.8623 113.61 38.9473 113.61 39.0449C113.61 39.1445 113.632 39.2354 113.677 39.3174C113.722 39.3994 113.79 39.4648 113.879 39.5137C113.971 39.5605 114.083 39.584 114.216 39.584C114.382 39.584 114.529 39.5488 114.656 39.4785C114.783 39.4082 114.883 39.3223 114.957 39.2207C115.034 39.1191 115.075 39.0205 115.081 38.9248L115.312 39.1855C115.298 39.2676 115.261 39.3584 115.201 39.458C115.14 39.5576 115.059 39.6533 114.957 39.7451C114.858 39.835 114.739 39.9102 114.6 39.9707C114.463 40.0293 114.309 40.0586 114.137 40.0586C113.922 40.0586 113.734 40.0166 113.572 39.9326C113.412 39.8486 113.287 39.7363 113.197 39.5957C113.109 39.4531 113.065 39.2939 113.065 39.1182C113.065 38.9482 113.098 38.7988 113.165 38.6699C113.231 38.5391 113.327 38.4307 113.452 38.3447C113.577 38.2568 113.727 38.1904 113.903 38.1455C114.079 38.1006 114.275 38.0781 114.492 38.0781H115.122ZM116.844 37.5068V40H116.302V36.8301H116.815L116.844 37.5068ZM116.715 38.2949L116.49 38.2861C116.492 38.0693 116.524 37.8691 116.587 37.6855C116.649 37.5 116.737 37.3389 116.85 37.2021C116.963 37.0654 117.098 36.96 117.254 36.8857C117.413 36.8096 117.587 36.7715 117.779 36.7715C117.935 36.7715 118.076 36.793 118.201 36.8359C118.326 36.877 118.432 36.9434 118.52 37.0352C118.61 37.127 118.678 37.2461 118.725 37.3926C118.772 37.5371 118.796 37.7139 118.796 37.9229V40H118.251V37.917C118.251 37.751 118.226 37.6182 118.177 37.5186C118.129 37.417 118.057 37.3438 117.963 37.2988C117.87 37.252 117.754 37.2285 117.618 37.2285C117.483 37.2285 117.36 37.2568 117.249 37.3135C117.139 37.3701 117.045 37.4482 116.964 37.5479C116.886 37.6475 116.825 37.7617 116.78 37.8906C116.737 38.0176 116.715 38.1523 116.715 38.2949ZM120.735 40H119.844L119.85 39.54H120.735C121.04 39.54 121.294 39.4766 121.497 39.3496C121.7 39.2207 121.852 39.041 121.954 38.8105C122.057 38.5781 122.109 38.3066 122.109 37.9961V37.7354C122.109 37.4912 122.08 37.2744 122.021 37.085C121.963 36.8936 121.877 36.7324 121.763 36.6016C121.65 36.4688 121.511 36.3682 121.347 36.2998C121.185 36.2314 120.999 36.1973 120.788 36.1973H119.827V35.7344H120.788C121.067 35.7344 121.322 35.7812 121.552 35.875C121.783 35.9668 121.981 36.1006 122.147 36.2764C122.315 36.4502 122.444 36.6611 122.534 36.9092C122.624 37.1553 122.669 37.4326 122.669 37.7412V37.9961C122.669 38.3047 122.624 38.583 122.534 38.8311C122.444 39.0771 122.314 39.2871 122.144 39.4609C121.976 39.6348 121.773 39.7686 121.535 39.8623C121.299 39.9541 121.032 40 120.735 40ZM120.146 35.7344V40H119.581V35.7344H120.146ZM125.256 39.2676V36.8301H125.801V40H125.282L125.256 39.2676ZM125.358 38.5996L125.584 38.5938C125.584 38.8047 125.561 39 125.516 39.1797C125.473 39.3574 125.403 39.5117 125.306 39.6426C125.208 39.7734 125.08 39.876 124.922 39.9502C124.764 40.0225 124.571 40.0586 124.345 40.0586C124.19 40.0586 124.049 40.0361 123.92 39.9912C123.793 39.9463 123.683 39.877 123.592 39.7832C123.5 39.6895 123.429 39.5674 123.378 39.417C123.329 39.2666 123.305 39.0859 123.305 38.875V36.8301H123.847V38.8809C123.847 39.0234 123.862 39.1416 123.893 39.2354C123.927 39.3271 123.971 39.4004 124.025 39.4551C124.082 39.5078 124.144 39.5449 124.213 39.5664C124.283 39.5879 124.355 39.5986 124.43 39.5986C124.66 39.5986 124.843 39.5547 124.977 39.4668C125.112 39.377 125.209 39.2568 125.267 39.1064C125.328 38.9541 125.358 38.7852 125.358 38.5996ZM128.352 39.1592C128.352 39.0811 128.335 39.0088 128.3 38.9424C128.267 38.874 128.197 38.8125 128.092 38.7578C127.988 38.7012 127.832 38.6523 127.623 38.6113C127.447 38.5742 127.288 38.5303 127.145 38.4795C127.005 38.4287 126.885 38.3672 126.785 38.2949C126.687 38.2227 126.612 38.1377 126.56 38.04C126.507 37.9424 126.48 37.8281 126.48 37.6973C126.48 37.5723 126.508 37.4541 126.562 37.3428C126.619 37.2314 126.698 37.1328 126.8 37.0469C126.903 36.9609 127.027 36.8936 127.172 36.8447C127.316 36.7959 127.477 36.7715 127.655 36.7715C127.909 36.7715 128.126 36.8164 128.306 36.9062C128.485 36.9961 128.623 37.1162 128.719 37.2666C128.814 37.415 128.862 37.5801 128.862 37.7617H128.32C128.32 37.6738 128.294 37.5889 128.241 37.5068C128.19 37.4229 128.115 37.3535 128.016 37.2988C127.918 37.2441 127.798 37.2168 127.655 37.2168C127.505 37.2168 127.383 37.2402 127.289 37.2871C127.197 37.332 127.13 37.3896 127.087 37.46C127.046 37.5303 127.025 37.6045 127.025 37.6826C127.025 37.7412 127.035 37.7939 127.055 37.8408C127.076 37.8857 127.113 37.9277 127.166 37.9668C127.219 38.0039 127.293 38.0391 127.389 38.0723C127.484 38.1055 127.606 38.1387 127.755 38.1719C128.015 38.2305 128.228 38.3008 128.396 38.3828C128.564 38.4648 128.689 38.5654 128.771 38.6846C128.853 38.8037 128.894 38.9482 128.894 39.1182C128.894 39.2568 128.865 39.3838 128.807 39.499C128.75 39.6143 128.667 39.7139 128.558 39.7979C128.45 39.8799 128.321 39.9443 128.171 39.9912C128.022 40.0361 127.855 40.0586 127.67 40.0586C127.391 40.0586 127.154 40.0088 126.961 39.9092C126.768 39.8096 126.621 39.6807 126.521 39.5225C126.422 39.3643 126.372 39.1973 126.372 39.0215H126.917C126.925 39.1699 126.968 39.2881 127.046 39.376C127.124 39.4619 127.22 39.5234 127.333 39.5605C127.446 39.5957 127.559 39.6133 127.67 39.6133C127.818 39.6133 127.942 39.5938 128.042 39.5547C128.144 39.5156 128.221 39.4619 128.273 39.3936C128.326 39.3252 128.352 39.2471 128.352 39.1592ZM130.802 40.0586C130.581 40.0586 130.381 40.0215 130.201 39.9473C130.024 39.8711 129.87 39.7646 129.741 39.6279C129.614 39.4912 129.517 39.3291 129.448 39.1416C129.38 38.9541 129.346 38.749 129.346 38.5264V38.4033C129.346 38.1455 129.384 37.916 129.46 37.7148C129.536 37.5117 129.64 37.3398 129.771 37.1992C129.901 37.0586 130.05 36.9521 130.216 36.8799C130.382 36.8076 130.554 36.7715 130.732 36.7715C130.958 36.7715 131.153 36.8105 131.317 36.8887C131.483 36.9668 131.619 37.0762 131.725 37.2168C131.83 37.3555 131.908 37.5195 131.959 37.709C132.01 37.8965 132.035 38.1016 132.035 38.3242V38.5674H129.668V38.125H131.493V38.084C131.485 37.9434 131.456 37.8066 131.405 37.6738C131.357 37.541 131.278 37.4316 131.171 37.3457C131.064 37.2598 130.917 37.2168 130.732 37.2168C130.608 37.2168 130.495 37.2432 130.392 37.2959C130.288 37.3467 130.199 37.4229 130.125 37.5244C130.051 37.626 129.993 37.75 129.952 37.8965C129.911 38.043 129.891 38.2119 129.891 38.4033V38.5264C129.891 38.6768 129.911 38.8184 129.952 38.9512C129.995 39.082 130.057 39.1973 130.137 39.2969C130.219 39.3965 130.317 39.4746 130.433 39.5312C130.55 39.5879 130.683 39.6162 130.831 39.6162C131.023 39.6162 131.185 39.5771 131.317 39.499C131.45 39.4209 131.566 39.3164 131.666 39.1855L131.994 39.4463C131.926 39.5498 131.839 39.6484 131.733 39.7422C131.628 39.8359 131.498 39.9121 131.344 39.9707C131.191 40.0293 131.011 40.0586 130.802 40.0586ZM133.09 37.5068V40H132.548V36.8301H133.061L133.09 37.5068ZM132.961 38.2949L132.736 38.2861C132.737 38.0693 132.77 37.8691 132.832 37.6855C132.895 37.5 132.983 37.3389 133.096 37.2021C133.209 37.0654 133.344 36.96 133.5 36.8857C133.658 36.8096 133.833 36.7715 134.025 36.7715C134.181 36.7715 134.321 36.793 134.446 36.8359C134.571 36.877 134.678 36.9434 134.766 37.0352C134.856 37.127 134.924 37.2461 134.971 37.3926C135.018 37.5371 135.041 37.7139 135.041 37.9229V40H134.496V37.917C134.496 37.751 134.472 37.6182 134.423 37.5186C134.374 37.417 134.303 37.3438 134.209 37.2988C134.115 37.252 134 37.2285 133.863 37.2285C133.729 37.2285 133.606 37.2568 133.494 37.3135C133.385 37.3701 133.29 37.4482 133.21 37.5479C133.132 37.6475 133.071 37.7617 133.026 37.8906C132.983 38.0176 132.961 38.1523 132.961 38.2949Z" fill="black"/>
<circle cx="90.079" cy="150.5" r="1.5" fill="#222222"/>
<path d="M38.935 152.353L40.1919 148.734H40.8042L39.2251 153H38.7885L38.935 152.353ZM37.7602 148.734L39.0053 152.353L39.1606 153H38.7241L37.1479 148.734H37.7602ZM42.9107 152.458V150.826C42.9107 150.701 42.8853 150.593 42.8346 150.501C42.7857 150.407 42.7115 150.335 42.6119 150.284C42.5123 150.233 42.3893 150.208 42.2428 150.208C42.106 150.208 41.9859 150.231 41.8824 150.278C41.7809 150.325 41.7008 150.387 41.6422 150.463C41.5855 150.539 41.5572 150.621 41.5572 150.709H41.0152C41.0152 150.596 41.0445 150.483 41.1031 150.372C41.1617 150.261 41.2457 150.16 41.3551 150.07C41.4664 149.979 41.5992 149.906 41.7535 149.854C41.9098 149.799 42.0836 149.771 42.275 149.771C42.5055 149.771 42.7086 149.811 42.8844 149.889C43.0621 149.967 43.2008 150.085 43.3004 150.243C43.4019 150.399 43.4527 150.596 43.4527 150.832V152.309C43.4527 152.414 43.4615 152.526 43.4791 152.646C43.4986 152.765 43.5269 152.867 43.5641 152.953V153H42.9986C42.9713 152.938 42.9498 152.854 42.9342 152.751C42.9185 152.646 42.9107 152.548 42.9107 152.458ZM43.0045 151.078L43.0103 151.459H42.4625C42.3082 151.459 42.1705 151.472 42.0494 151.497C41.9283 151.521 41.8268 151.557 41.7447 151.605C41.6627 151.654 41.6002 151.716 41.5572 151.79C41.5143 151.862 41.4928 151.947 41.4928 152.045C41.4928 152.145 41.5152 152.235 41.5602 152.317C41.6051 152.399 41.6725 152.465 41.7623 152.514C41.8541 152.561 41.9664 152.584 42.0992 152.584C42.2652 152.584 42.4117 152.549 42.5387 152.479C42.6656 152.408 42.7662 152.322 42.8404 152.221C42.9166 152.119 42.9576 152.021 42.9635 151.925L43.1949 152.186C43.1812 152.268 43.1441 152.358 43.0836 152.458C43.023 152.558 42.942 152.653 42.8404 152.745C42.7408 152.835 42.6217 152.91 42.483 152.971C42.3463 153.029 42.192 153.059 42.0201 153.059C41.8053 153.059 41.6168 153.017 41.4547 152.933C41.2945 152.849 41.1695 152.736 41.0797 152.596C40.9918 152.453 40.9478 152.294 40.9478 152.118C40.9478 151.948 40.981 151.799 41.0475 151.67C41.1139 151.539 41.2096 151.431 41.3346 151.345C41.4596 151.257 41.61 151.19 41.7857 151.146C41.9615 151.101 42.1578 151.078 42.3746 151.078H43.0045ZM44.7273 150.507V153H44.1853V149.83H44.698L44.7273 150.507ZM44.5984 151.295L44.3728 151.286C44.3747 151.069 44.4069 150.869 44.4694 150.686C44.5319 150.5 44.6198 150.339 44.7331 150.202C44.8464 150.065 44.9812 149.96 45.1374 149.886C45.2956 149.81 45.4704 149.771 45.6618 149.771C45.8181 149.771 45.9587 149.793 46.0837 149.836C46.2087 149.877 46.3152 149.943 46.403 150.035C46.4929 150.127 46.5612 150.246 46.6081 150.393C46.655 150.537 46.6784 150.714 46.6784 150.923V153H46.1335V150.917C46.1335 150.751 46.1091 150.618 46.0603 150.519C46.0114 150.417 45.9402 150.344 45.8464 150.299C45.7527 150.252 45.6374 150.229 45.5007 150.229C45.3659 150.229 45.2429 150.257 45.1316 150.313C45.0222 150.37 44.9275 150.448 44.8474 150.548C44.7693 150.647 44.7077 150.762 44.6628 150.891C44.6198 151.018 44.5984 151.152 44.5984 151.295ZM48.618 153H47.7274L47.7332 152.54H48.618C48.9227 152.54 49.1766 152.477 49.3797 152.35C49.5828 152.221 49.7352 152.041 49.8368 151.811C49.9403 151.578 49.992 151.307 49.992 150.996V150.735C49.992 150.491 49.9627 150.274 49.9041 150.085C49.8455 149.894 49.7596 149.732 49.6463 149.602C49.533 149.469 49.3944 149.368 49.2303 149.3C49.0682 149.231 48.8817 149.197 48.6707 149.197H47.7098V148.734H48.6707C48.95 148.734 49.2049 148.781 49.4354 148.875C49.6659 148.967 49.8641 149.101 50.0301 149.276C50.1981 149.45 50.327 149.661 50.4168 149.909C50.5067 150.155 50.5516 150.433 50.5516 150.741V150.996C50.5516 151.305 50.5067 151.583 50.4168 151.831C50.327 152.077 50.1971 152.287 50.0272 152.461C49.8592 152.635 49.6561 152.769 49.4178 152.862C49.1815 152.954 48.9149 153 48.618 153ZM48.0291 148.734V153H47.4637V148.734H48.0291ZM53.1386 152.268V149.83H53.6835V153H53.165L53.1386 152.268ZM53.2412 151.6L53.4668 151.594C53.4668 151.805 53.4443 152 53.3994 152.18C53.3564 152.357 53.2861 152.512 53.1884 152.643C53.0908 152.773 52.9628 152.876 52.8046 152.95C52.6464 153.022 52.4541 153.059 52.2275 153.059C52.0732 153.059 51.9316 153.036 51.8027 152.991C51.6757 152.946 51.5664 152.877 51.4746 152.783C51.3828 152.689 51.3115 152.567 51.2607 152.417C51.2119 152.267 51.1875 152.086 51.1875 151.875V149.83H51.7294V151.881C51.7294 152.023 51.7451 152.142 51.7763 152.235C51.8095 152.327 51.8535 152.4 51.9082 152.455C51.9648 152.508 52.0273 152.545 52.0957 152.566C52.166 152.588 52.2382 152.599 52.3125 152.599C52.5429 152.599 52.7255 152.555 52.8603 152.467C52.9951 152.377 53.0918 152.257 53.1503 152.106C53.2109 151.954 53.2412 151.785 53.2412 151.6ZM56.2354 152.159C56.2354 152.081 56.2178 152.009 56.1827 151.942C56.1495 151.874 56.0802 151.812 55.9747 151.758C55.8712 151.701 55.7149 151.652 55.5059 151.611C55.3302 151.574 55.171 151.53 55.0284 151.479C54.8878 151.429 54.7677 151.367 54.668 151.295C54.5704 151.223 54.4952 151.138 54.4425 151.04C54.3897 150.942 54.3634 150.828 54.3634 150.697C54.3634 150.572 54.3907 150.454 54.4454 150.343C54.502 150.231 54.5811 150.133 54.6827 150.047C54.7862 149.961 54.9102 149.894 55.0548 149.845C55.1993 149.796 55.3604 149.771 55.5382 149.771C55.7921 149.771 56.0089 149.816 56.1885 149.906C56.3682 149.996 56.5059 150.116 56.6016 150.267C56.6973 150.415 56.7452 150.58 56.7452 150.762H56.2032C56.2032 150.674 56.1768 150.589 56.1241 150.507C56.0733 150.423 55.9981 150.354 55.8985 150.299C55.8009 150.244 55.6807 150.217 55.5382 150.217C55.3878 150.217 55.2657 150.24 55.1719 150.287C55.0802 150.332 55.0128 150.39 54.9698 150.46C54.9288 150.53 54.9083 150.604 54.9083 150.683C54.9083 150.741 54.918 150.794 54.9376 150.841C54.9591 150.886 54.9962 150.928 55.0489 150.967C55.1016 151.004 55.1759 151.039 55.2716 151.072C55.3673 151.105 55.4893 151.139 55.6378 151.172C55.8975 151.23 56.1114 151.301 56.2794 151.383C56.4473 151.465 56.5723 151.565 56.6544 151.685C56.7364 151.804 56.7774 151.948 56.7774 152.118C56.7774 152.257 56.7481 152.384 56.6895 152.499C56.6329 152.614 56.5499 152.714 56.4405 152.798C56.3331 152.88 56.2042 152.944 56.0538 152.991C55.9053 153.036 55.7384 153.059 55.5528 153.059C55.2735 153.059 55.0372 153.009 54.8438 152.909C54.6505 152.81 54.504 152.681 54.4044 152.522C54.3048 152.364 54.255 152.197 54.255 152.021H54.7999C54.8077 152.17 54.8507 152.288 54.9288 152.376C55.0069 152.462 55.1026 152.523 55.2159 152.561C55.3292 152.596 55.4415 152.613 55.5528 152.613C55.7012 152.613 55.8253 152.594 55.9249 152.555C56.0264 152.516 56.1036 152.462 56.1563 152.394C56.2091 152.325 56.2354 152.247 56.2354 152.159ZM58.6848 153.059C58.4641 153.059 58.2639 153.021 58.0842 152.947C57.9064 152.871 57.7531 152.765 57.6242 152.628C57.4973 152.491 57.3996 152.329 57.3312 152.142C57.2629 151.954 57.2287 151.749 57.2287 151.526V151.403C57.2287 151.146 57.2668 150.916 57.343 150.715C57.4191 150.512 57.5227 150.34 57.6535 150.199C57.7844 150.059 57.9328 149.952 58.0988 149.88C58.2648 149.808 58.4367 149.771 58.6144 149.771C58.841 149.771 59.0363 149.811 59.2004 149.889C59.3664 149.967 59.5021 150.076 59.6076 150.217C59.7131 150.355 59.7912 150.52 59.842 150.709C59.8928 150.896 59.9182 151.102 59.9182 151.324V151.567H57.551V151.125H59.3762V151.084C59.3684 150.943 59.3391 150.807 59.2883 150.674C59.2394 150.541 59.1613 150.432 59.0539 150.346C58.9465 150.26 58.8 150.217 58.6144 150.217C58.4914 150.217 58.3781 150.243 58.2746 150.296C58.1711 150.347 58.0822 150.423 58.008 150.524C57.9338 150.626 57.8762 150.75 57.8352 150.896C57.7941 151.043 57.7736 151.212 57.7736 151.403V151.526C57.7736 151.677 57.7941 151.818 57.8352 151.951C57.8781 152.082 57.9396 152.197 58.0197 152.297C58.1018 152.396 58.2004 152.475 58.3156 152.531C58.4328 152.588 58.5656 152.616 58.7141 152.616C58.9055 152.616 59.0676 152.577 59.2004 152.499C59.3332 152.421 59.4494 152.316 59.549 152.186L59.8771 152.446C59.8088 152.55 59.7219 152.648 59.6164 152.742C59.5109 152.836 59.3811 152.912 59.2268 152.971C59.0744 153.029 58.8937 153.059 58.6848 153.059ZM60.973 150.507V153H60.431V149.83H60.9437L60.973 150.507ZM60.8441 151.295L60.6185 151.286C60.6204 151.069 60.6527 150.869 60.7152 150.686C60.7777 150.5 60.8655 150.339 60.9788 150.202C61.0921 150.065 61.2269 149.96 61.3831 149.886C61.5413 149.81 61.7161 149.771 61.9075 149.771C62.0638 149.771 62.2044 149.793 62.3294 149.836C62.4544 149.877 62.5609 149.943 62.6487 150.035C62.7386 150.127 62.8069 150.246 62.8538 150.393C62.9007 150.537 62.9241 150.714 62.9241 150.923V153H62.3792V150.917C62.3792 150.751 62.3548 150.618 62.306 150.519C62.2571 150.417 62.1859 150.344 62.0921 150.299C61.9984 150.252 61.8831 150.229 61.7464 150.229C61.6116 150.229 61.4886 150.257 61.3773 150.313C61.2679 150.37 61.1732 150.448 61.0931 150.548C61.015 150.647 60.9534 150.762 60.9085 150.891C60.8655 151.018 60.8441 151.152 60.8441 151.295ZM66.6509 151.327H65.5113V150.867H66.6509C66.8716 150.867 67.0503 150.832 67.1871 150.762C67.3238 150.691 67.4234 150.594 67.4859 150.469C67.5503 150.344 67.5826 150.201 67.5826 150.041C67.5826 149.895 67.5503 149.757 67.4859 149.628C67.4234 149.499 67.3238 149.396 67.1871 149.317C67.0503 149.237 66.8716 149.197 66.6509 149.197H65.6431V153H65.0777V148.734H66.6509C66.9732 148.734 67.2457 148.79 67.4683 148.901C67.691 149.013 67.8599 149.167 67.9752 149.364C68.0904 149.56 68.148 149.783 68.148 150.035C68.148 150.309 68.0904 150.542 67.9752 150.735C67.8599 150.929 67.691 151.076 67.4683 151.178C67.2457 151.277 66.9732 151.327 66.6509 151.327ZM70.4948 152.458V150.826C70.4948 150.701 70.4694 150.593 70.4186 150.501C70.3698 150.407 70.2956 150.335 70.196 150.284C70.0964 150.233 69.9733 150.208 69.8268 150.208C69.6901 150.208 69.57 150.231 69.4665 150.278C69.3649 150.325 69.2848 150.387 69.2262 150.463C69.1696 150.539 69.1413 150.621 69.1413 150.709H68.5993C68.5993 150.596 68.6286 150.483 68.6872 150.372C68.7458 150.261 68.8298 150.16 68.9391 150.07C69.0505 149.979 69.1833 149.906 69.3376 149.854C69.4938 149.799 69.6677 149.771 69.8591 149.771C70.0895 149.771 70.2927 149.811 70.4684 149.889C70.6462 149.967 70.7848 150.085 70.8844 150.243C70.986 150.399 71.0368 150.596 71.0368 150.832V152.309C71.0368 152.414 71.0456 152.526 71.0632 152.646C71.0827 152.765 71.111 152.867 71.1481 152.953V153H70.5827C70.5553 152.938 70.5339 152.854 70.5182 152.751C70.5026 152.646 70.4948 152.548 70.4948 152.458ZM70.5885 151.078L70.5944 151.459H70.0466C69.8923 151.459 69.7546 151.472 69.6335 151.497C69.5124 151.521 69.4108 151.557 69.3288 151.605C69.2468 151.654 69.1843 151.716 69.1413 151.79C69.0983 151.862 69.0768 151.947 69.0768 152.045C69.0768 152.145 69.0993 152.235 69.1442 152.317C69.1891 152.399 69.2565 152.465 69.3464 152.514C69.4382 152.561 69.5505 152.584 69.6833 152.584C69.8493 152.584 69.9958 152.549 70.1227 152.479C70.2497 152.408 70.3503 152.322 70.4245 152.221C70.5007 152.119 70.5417 152.021 70.5475 151.925L70.779 152.186C70.7653 152.268 70.7282 152.358 70.6677 152.458C70.6071 152.558 70.526 152.653 70.4245 152.745C70.3249 152.835 70.2057 152.91 70.0671 152.971C69.9303 153.029 69.776 153.059 69.6042 153.059C69.3893 153.059 69.2009 153.017 69.0387 152.933C68.8786 152.849 68.7536 152.736 68.6637 152.596C68.5759 152.453 68.5319 152.294 68.5319 152.118C68.5319 151.948 68.5651 151.799 68.6315 151.67C68.6979 151.539 68.7936 151.431 68.9186 151.345C69.0436 151.257 69.194 151.19 69.3698 151.146C69.5456 151.101 69.7419 151.078 69.9587 151.078H70.5885ZM72.3113 150.328V153H71.7693V149.83H72.2967L72.3113 150.328ZM73.3016 149.812L73.2986 150.316C73.2537 150.307 73.2107 150.301 73.1697 150.299C73.1307 150.295 73.0857 150.293 73.035 150.293C72.91 150.293 72.7996 150.312 72.7039 150.352C72.6082 150.391 72.5271 150.445 72.4607 150.516C72.3943 150.586 72.3416 150.67 72.3025 150.768C72.2654 150.863 72.241 150.969 72.2293 151.084L72.077 151.172C72.077 150.98 72.0955 150.801 72.1326 150.633C72.1717 150.465 72.2312 150.316 72.3113 150.188C72.3914 150.057 72.493 149.955 72.616 149.883C72.741 149.809 72.8895 149.771 73.0613 149.771C73.1004 149.771 73.1453 149.776 73.1961 149.786C73.2469 149.794 73.282 149.803 73.3016 149.812ZM74.2275 148.5V153H73.6825V148.5H74.2275ZM76.164 149.83L74.7812 151.31L74.0077 152.112L73.9638 151.535L74.5175 150.873L75.5019 149.83H76.164ZM75.6689 153L74.538 151.488L74.8193 151.005L76.3075 153H75.6689ZM77.1924 149.83V153H76.6475V149.83H77.1924ZM76.6065 148.989C76.6065 148.901 76.6328 148.827 76.6856 148.767C76.7403 148.706 76.8203 148.676 76.9258 148.676C77.0293 148.676 77.1084 148.706 77.1631 148.767C77.2198 148.827 77.2481 148.901 77.2481 148.989C77.2481 149.073 77.2198 149.146 77.1631 149.206C77.1084 149.265 77.0293 149.294 76.9258 149.294C76.8203 149.294 76.7403 149.265 76.6856 149.206C76.6328 149.146 76.6065 149.073 76.6065 148.989ZM78.4845 150.507V153H77.9425V149.83H78.4552L78.4845 150.507ZM78.3556 151.295L78.13 151.286C78.132 151.069 78.1642 150.869 78.2267 150.686C78.2892 150.5 78.3771 150.339 78.4904 150.202C78.6037 150.065 78.7384 149.96 78.8947 149.886C79.0529 149.81 79.2277 149.771 79.4191 149.771C79.5753 149.771 79.716 149.793 79.841 149.836C79.966 149.877 80.0724 149.943 80.1603 150.035C80.2502 150.127 80.3185 150.246 80.3654 150.393C80.4123 150.537 80.4357 150.714 80.4357 150.923V153H79.8908V150.917C79.8908 150.751 79.8664 150.618 79.8175 150.519C79.7687 150.417 79.6974 150.344 79.6037 150.299C79.5099 150.252 79.3947 150.229 79.258 150.229C79.1232 150.229 79.0002 150.257 78.8888 150.313C78.7794 150.37 78.6847 150.448 78.6046 150.548C78.5265 150.647 78.465 150.762 78.4201 150.891C78.3771 151.018 78.3556 151.152 78.3556 151.295ZM83.1926 149.83H83.6848V152.933C83.6848 153.212 83.6282 153.45 83.5149 153.647C83.4016 153.845 83.2434 153.994 83.0403 154.096C82.8391 154.199 82.6067 154.251 82.343 154.251C82.2337 154.251 82.1048 154.233 81.9563 154.198C81.8098 154.165 81.6653 154.107 81.5227 154.025C81.3821 153.945 81.2639 153.837 81.1682 153.7L81.4524 153.378C81.5852 153.538 81.7239 153.649 81.8684 153.712C82.0149 153.774 82.1594 153.806 82.302 153.806C82.4739 153.806 82.6223 153.773 82.7473 153.709C82.8723 153.645 82.969 153.549 83.0374 153.422C83.1077 153.297 83.1428 153.143 83.1428 152.959V150.527L83.1926 149.83ZM81.01 151.45V151.389C81.01 151.146 81.0384 150.927 81.095 150.729C81.1536 150.53 81.2366 150.359 81.344 150.217C81.4534 150.074 81.5852 149.965 81.7395 149.889C81.8938 149.811 82.0676 149.771 82.261 149.771C82.4602 149.771 82.6341 149.807 82.7825 149.877C82.9329 149.945 83.0598 150.046 83.1634 150.179C83.2688 150.31 83.3518 150.468 83.4124 150.653C83.4729 150.839 83.5149 151.049 83.5384 151.283V151.553C83.5169 151.785 83.4749 151.994 83.4124 152.18C83.3518 152.365 83.2688 152.523 83.1634 152.654C83.0598 152.785 82.9329 152.886 82.7825 152.956C82.6321 153.024 82.4563 153.059 82.2551 153.059C82.0657 153.059 81.8938 153.019 81.7395 152.938C81.5872 152.858 81.4563 152.746 81.3469 152.602C81.2376 152.457 81.1536 152.287 81.095 152.092C81.0384 151.895 81.01 151.681 81.01 151.45ZM81.552 151.389V151.45C81.552 151.608 81.5676 151.757 81.5989 151.896C81.6321 152.034 81.6819 152.156 81.7483 152.262C81.8167 152.367 81.9036 152.45 82.0091 152.511C82.1145 152.569 82.2405 152.599 82.387 152.599C82.5667 152.599 82.7151 152.561 82.8323 152.484C82.9495 152.408 83.0423 152.308 83.1106 152.183C83.1809 152.058 83.2356 151.922 83.2747 151.775V151.069C83.2532 150.962 83.22 150.858 83.1751 150.759C83.1321 150.657 83.0755 150.567 83.0051 150.489C82.9368 150.409 82.8518 150.346 82.7503 150.299C82.6487 150.252 82.5296 150.229 82.3928 150.229C82.2444 150.229 82.1165 150.26 82.0091 150.322C81.9036 150.383 81.8167 150.467 81.7483 150.574C81.6819 150.68 81.6321 150.803 81.5989 150.943C81.5676 151.082 81.552 151.23 81.552 151.389Z" fill="black"/>
<path d="M184.079 62H239.079" stroke="black" stroke-width="2"/>
<path d="M136.826 134.341C136.463 134.757 136.505 135.389 136.92 135.753C137.336 136.116 137.968 136.074 138.332 135.659L136.826 134.341ZM144.218 135.404L178.886 168.721L180.272 167.279L145.604 133.962L144.218 135.404ZM138.332 135.659C139.862 133.91 142.543 133.794 144.218 135.404L145.604 133.962C143.106 131.561 139.108 131.734 136.826 134.341L138.332 135.659Z" fill="black"/>
<path d="M94.579 133C97.4123 126 105.679 110.9 116.079 106.5C119.412 111.667 126.379 124.7 127.579 135.5" stroke="black" stroke-width="2" stroke-linecap="round"/>
<path d="M116.579 106C119.246 96.6667 126.579 77.4 134.579 75C142.579 72.6 156.246 69 162.079 67.5" stroke="black" stroke-width="2" stroke-linecap="round"/>
<path d="M185.079 29.5C173.912 32.5 153.579 44.3 161.579 67.5C168.246 70.3333 181.679 77.7 182.079 84.5" stroke="black" stroke-width="2" stroke-linecap="round"/>
<path d="M167.579 25.5L172.079 35" stroke="black" stroke-width="2" stroke-linecap="round"/>
<path d="M186.079 -0.5L179.079 174" stroke="black" stroke-width="2"/>
<path d="M192.091 21.5531L191.911 21.5531C191.697 21.5531 191.506 21.5264 191.337 21.473C191.168 21.4197 191.024 21.3428 190.905 21.2426C190.787 21.1423 190.696 21.0219 190.634 20.8812C190.571 20.7419 190.54 20.5857 190.54 20.4125C190.54 20.2445 190.571 20.0902 190.634 19.9496C190.696 19.8103 190.787 19.6892 190.905 19.5863C191.024 19.4848 191.168 19.406 191.337 19.35C191.506 19.294 191.697 19.266 191.911 19.266L192.091 19.266C192.304 19.266 192.495 19.2934 192.663 19.348C192.832 19.404 192.976 19.4828 193.095 19.5844C193.214 19.6859 193.306 19.8064 193.368 19.9457C193.431 20.0863 193.462 20.2406 193.462 20.4086C193.462 20.5818 193.431 20.738 193.368 20.8773C193.306 21.018 193.214 21.1384 193.095 21.2387C192.976 21.3402 192.832 21.4177 192.663 21.4711C192.495 21.5258 192.304 21.5531 192.091 21.5531ZM191.911 21.1801L192.095 21.1801C192.264 21.1801 192.414 21.1625 192.544 21.1273C192.674 21.0935 192.783 21.0434 192.872 20.977C192.96 20.9105 193.028 20.8292 193.073 20.7328C193.119 20.6378 193.141 20.5297 193.141 20.4086C193.141 20.2914 193.119 20.1853 193.073 20.0902C193.028 19.9965 192.96 19.9158 192.872 19.848C192.783 19.7816 192.674 19.7302 192.544 19.6937C192.414 19.6573 192.264 19.6391 192.095 19.6391L191.911 19.6391C191.74 19.6391 191.589 19.6573 191.458 19.6937C191.328 19.7302 191.218 19.7823 191.128 19.85C191.039 19.919 190.972 20.0004 190.927 20.0941C190.881 20.1892 190.858 20.2953 190.858 20.4125C190.858 20.5349 190.881 20.6436 190.927 20.7387C190.972 20.8337 191.039 20.9138 191.128 20.9789C191.218 21.0453 191.328 21.0954 191.458 21.1293C191.589 21.1632 191.74 21.1801 191.911 21.1801ZM190.94 23.969L192.028 23.969C192.112 23.969 192.184 23.9521 192.245 23.9182C192.307 23.8857 192.356 23.8362 192.39 23.7698C192.423 23.7034 192.44 23.6213 192.44 23.5237C192.44 23.4325 192.425 23.3524 192.393 23.2834C192.362 23.2157 192.321 23.1623 192.27 23.1233C192.22 23.0855 192.165 23.0666 192.106 23.0666L192.106 22.7053C192.182 22.7053 192.257 22.7248 192.331 22.7639C192.405 22.803 192.472 22.859 192.532 22.9319C192.593 23.0061 192.641 23.0946 192.677 23.1975C192.713 23.3017 192.731 23.4176 192.731 23.5452C192.731 23.6988 192.705 23.8342 192.653 23.9514C192.601 24.0699 192.522 24.1623 192.417 24.2287C192.313 24.2965 192.182 24.3303 192.024 24.3303L191.04 24.3303C190.97 24.3303 190.895 24.3362 190.815 24.3479C190.736 24.3609 190.668 24.3798 190.61 24.4045L190.579 24.4045L190.579 24.0276C190.621 24.0093 190.676 23.995 190.745 23.9846C190.815 23.9742 190.88 23.969 190.94 23.969ZM191.86 24.0315L191.606 24.0354L191.606 23.6702C191.606 23.5673 191.598 23.4755 191.581 23.3948C191.565 23.314 191.541 23.2463 191.509 23.1916C191.476 23.137 191.435 23.0953 191.386 23.0666C191.337 23.038 191.281 23.0237 191.216 23.0237C191.149 23.0237 191.089 23.0386 191.034 23.0686C190.979 23.0985 190.936 23.1435 190.903 23.2034C190.872 23.2646 190.856 23.3394 190.856 23.428C190.856 23.5386 190.88 23.6363 190.927 23.7209C190.974 23.8056 191.031 23.8726 191.099 23.9221C191.166 23.9729 191.232 24.0002 191.296 24.0041L191.122 24.1584C191.067 24.1493 191.007 24.1246 190.94 24.0842C190.874 24.0439 190.81 23.9898 190.749 23.9221C190.689 23.8557 190.639 23.7763 190.599 23.6838C190.559 23.5927 190.54 23.4898 190.54 23.3752C190.54 23.232 190.568 23.1064 190.624 22.9983C190.68 22.8915 190.755 22.8082 190.849 22.7483C190.944 22.6897 191.05 22.6604 191.167 22.6604C191.28 22.6604 191.38 22.6825 191.466 22.7268C191.553 22.7711 191.625 22.8349 191.682 22.9182C191.741 23.0015 191.785 23.1018 191.815 23.219C191.845 23.3362 191.86 23.467 191.86 23.6116L191.86 24.0315ZM193.579 25.922L190.579 25.922L190.579 25.5587L193.579 25.5587L193.579 25.922ZM192.692 27.213L191.706 26.2911L191.171 25.7755L191.556 25.7462L191.997 26.1153L192.692 26.7716L192.692 27.213ZM190.579 26.8829L191.587 26.129L191.909 26.3165L190.579 27.3087L190.579 26.8829ZM191.298 31.4685C191.364 31.4685 191.423 31.4581 191.474 31.4373C191.526 31.4177 191.572 31.3826 191.614 31.3318C191.656 31.2823 191.696 31.2133 191.733 31.1248C191.771 31.0375 191.809 30.9268 191.849 30.7927C191.89 30.6521 191.936 30.5252 191.987 30.4119C192.039 30.2986 192.099 30.2016 192.165 30.1209C192.231 30.0401 192.307 29.9783 192.393 29.9353C192.479 29.8923 192.578 29.8709 192.688 29.8709C192.799 29.8709 192.901 29.8936 192.995 29.9392C193.089 29.9848 193.17 30.0499 193.239 30.1345C193.309 30.2205 193.364 30.3227 193.403 30.4412C193.442 30.5597 193.462 30.6918 193.462 30.8377C193.462 31.0512 193.421 31.2322 193.339 31.3806C193.258 31.5304 193.152 31.6443 193.02 31.7224C192.89 31.8005 192.751 31.8396 192.602 31.8396L192.602 31.4646C192.709 31.4646 192.804 31.4418 192.886 31.3962C192.969 31.3507 193.034 31.2817 193.081 31.1892C193.129 31.0968 193.153 30.9796 193.153 30.8377C193.153 30.7035 193.133 30.5929 193.093 30.5056C193.052 30.4184 192.998 30.3533 192.929 30.3103C192.86 30.2686 192.781 30.2478 192.692 30.2478C192.632 30.2478 192.578 30.2602 192.528 30.2849C192.48 30.311 192.435 30.3507 192.393 30.4041C192.352 30.4587 192.313 30.5278 192.278 30.6111C192.243 30.6957 192.209 30.7966 192.177 30.9138C192.131 31.0753 192.08 31.2146 192.024 31.3318C191.968 31.449 191.905 31.5453 191.835 31.6209C191.766 31.6977 191.687 31.7543 191.599 31.7908C191.511 31.8285 191.412 31.8474 191.302 31.8474C191.186 31.8474 191.081 31.824 190.987 31.7771C190.893 31.7302 190.813 31.6632 190.747 31.5759C190.681 31.4887 190.629 31.3839 190.593 31.2615C190.557 31.1404 190.54 31.005 190.54 30.8552C190.54 30.7237 190.558 30.5942 190.595 30.4666C190.631 30.3403 190.686 30.225 190.759 30.1209C190.832 30.018 190.921 29.9353 191.028 29.8728C191.136 29.8116 191.261 29.781 191.403 29.781L191.403 30.156C191.306 30.156 191.222 30.1749 191.151 30.2127C191.082 30.2504 191.025 30.3018 190.979 30.367C190.934 30.4334 190.9 30.5082 190.878 30.5916C190.857 30.6762 190.847 30.7641 190.847 30.8552C190.847 30.9867 190.865 31.0981 190.901 31.1892C190.938 31.2804 190.99 31.3494 191.057 31.3962C191.125 31.4444 191.205 31.4685 191.298 31.4685ZM192.692 33.818L192.415 33.818L192.415 32.6754L192.692 32.6754L192.692 33.818ZM193.206 33.0621L193.206 33.4234L191.102 33.4234C191.031 33.4234 190.977 33.4345 190.94 33.4566C190.904 33.4788 190.88 33.5074 190.868 33.5426C190.856 33.5777 190.85 33.6155 190.85 33.6559C190.85 33.6858 190.853 33.7171 190.858 33.7496C190.865 33.7835 190.87 33.8089 190.874 33.8258L190.579 33.8277C190.57 33.7991 190.561 33.7613 190.554 33.7145C190.544 33.6689 190.54 33.6135 190.54 33.5484C190.54 33.4599 190.557 33.3785 190.593 33.3043C190.628 33.2301 190.686 33.1708 190.768 33.1266C190.852 33.0836 190.964 33.0621 191.104 33.0621L193.206 33.0621Z" fill="#888888"/>
<path d="M31.392 6.20988L31.1569 6.40677L30.2439 5.31669L30.479 5.1198L31.392 6.20988ZM32.4718 3.54771L30.2916 5.37359L30.0496 5.0846L32.2297 3.25872L32.4718 3.54771ZM33.6949 6.14585L32.0747 7.50272L31.8415 7.22421L33.4616 5.86734L33.6949 6.14585ZM33.8738 5.48647C33.9187 5.44885 33.968 5.43056 34.0215 5.43159C34.0758 5.43363 34.1256 5.46159 34.1707 5.5155C34.215 5.56841 34.2334 5.62179 34.2259 5.67566C34.2192 5.73053 34.1934 5.77677 34.1484 5.81439C34.1055 5.85034 34.0565 5.8668 34.0013 5.86377C33.9479 5.8609 33.8991 5.83301 33.8548 5.7801C33.8096 5.7262 33.7903 5.67273 33.7969 5.6197C33.8052 5.56683 33.8309 5.52242 33.8738 5.48647ZM33.5336 8.73663L35.2749 8.03241L35.5119 8.31541L33.4039 9.0898L33.2484 8.90413L33.5336 8.73663ZM34.5939 7.21934L33.5988 8.82975L33.3826 9.06434L33.2271 8.87867L34.3557 6.93484L34.5939 7.21934ZM36.4109 9.3889L34.7908 10.7458L34.5575 10.4673L36.1777 9.11039L36.4109 9.3889ZM36.5899 8.72952C36.6348 8.69189 36.684 8.6736 36.7375 8.67464C36.7919 8.67667 36.8416 8.70464 36.8868 8.75855C36.9311 8.81145 36.9495 8.86484 36.9419 8.91871C36.9352 8.97357 36.9094 9.01982 36.8645 9.05744C36.8216 9.09339 36.7725 9.10984 36.7173 9.10681C36.664 9.10394 36.6151 9.07605 36.5708 9.02315C36.5257 8.96924 36.5064 8.91577 36.5129 8.86274C36.5213 8.80987 36.5469 8.76546 36.5899 8.72952ZM37.0932 10.9063L35.819 11.9735L35.587 11.6965L37.2071 10.3396L37.4266 10.6016L37.0932 10.9063ZM36.6353 11.1777L36.5432 11.0587C36.6548 10.9669 36.771 10.8977 36.8915 10.851C37.0131 10.8035 37.1331 10.7795 37.2515 10.7789C37.3698 10.7782 37.4814 10.802 37.5862 10.8501C37.6929 10.8983 37.7872 10.9714 37.8691 11.0692C37.936 11.149 37.9852 11.2301 38.0167 11.3124C38.0493 11.3938 38.0609 11.4767 38.0516 11.5609C38.0432 11.6461 38.0115 11.732 37.9567 11.8187C37.9029 11.9045 37.8226 11.9922 37.7158 12.0816L36.6542 12.9707L36.4209 12.6922L37.4855 11.8006C37.5704 11.7295 37.6278 11.6602 37.6578 11.5926C37.6888 11.5242 37.6958 11.4564 37.6786 11.3893C37.6624 11.3213 37.6251 11.2523 37.5665 11.1825C37.5089 11.1136 37.4417 11.0628 37.3651 11.0302C37.2894 10.9985 37.2089 10.9835 37.1237 10.9852C37.0393 10.988 36.9546 11.0054 36.8695 11.0376C36.7862 11.07 36.7081 11.1167 36.6353 11.1777ZM39.9295 13.5903L40.1402 13.8418L38.5545 15.1698C38.4118 15.2894 38.2657 15.3624 38.1164 15.389C37.9671 15.4155 37.823 15.3986 37.6842 15.3383C37.5452 15.2798 37.4192 15.1831 37.3063 15.0484C37.2595 14.9925 37.2133 14.919 37.1678 14.8281C37.122 14.7391 37.0896 14.6405 37.0705 14.5325C37.0513 14.4264 37.0561 14.3196 37.085 14.2122L37.3713 14.2195C37.3463 14.3559 37.3488 14.4744 37.3787 14.575C37.4095 14.6767 37.4554 14.7639 37.5164 14.8368C37.59 14.9246 37.67 14.9867 37.7564 15.023C37.8429 15.0593 37.9332 15.0677 38.0273 15.0483C38.1213 15.0308 38.2152 14.9827 38.309 14.9041L39.5518 13.8633L39.9295 13.5903ZM38.1672 13.1682L38.1987 13.1419C38.3225 13.0382 38.4469 12.9586 38.572 12.9031C38.6989 12.8478 38.8217 12.8171 38.9406 12.811C39.0603 12.8058 39.1726 12.8264 39.2776 12.8726C39.3836 12.9181 39.4779 12.9902 39.5607 13.089C39.646 13.1908 39.7024 13.2947 39.73 13.4007C39.7595 13.5068 39.7624 13.6148 39.7388 13.7245C39.7171 13.8344 39.6717 13.9446 39.6028 14.0549C39.5339 14.1653 39.4446 14.2766 39.3348 14.3889L39.1971 14.5043C39.0691 14.5928 38.9443 14.6608 38.8227 14.7083C38.702 14.7568 38.5856 14.7821 38.4735 14.7842C38.3624 14.7873 38.2566 14.7654 38.1563 14.7187C38.057 14.6711 37.9643 14.5959 37.8782 14.493C37.7971 14.3962 37.744 14.2912 37.7188 14.1781C37.6946 14.066 37.6959 13.951 37.723 13.8332C37.75 13.7155 37.8009 13.5998 37.8757 13.4863C37.9523 13.3729 38.0494 13.2669 38.1672 13.1682ZM38.4307 13.4189L38.3992 13.4452C38.3184 13.5129 38.2492 13.5845 38.1917 13.6598C38.135 13.7361 38.094 13.8138 38.0685 13.8929C38.0438 13.973 38.0386 14.0529 38.0528 14.1328C38.068 14.2117 38.107 14.2887 38.1697 14.3635C38.2466 14.4554 38.3296 14.5149 38.4187 14.5422C38.5078 14.5695 38.5989 14.5739 38.692 14.5553C38.786 14.5377 38.8788 14.5076 38.9704 14.4649L39.3313 14.1626C39.377 14.1057 39.4157 14.0444 39.4474 13.9788C39.4809 13.9134 39.5025 13.846 39.5124 13.7766C39.524 13.7074 39.5201 13.6368 39.5006 13.5648C39.4811 13.4928 39.4421 13.4219 39.3835 13.352C39.32 13.2762 39.2493 13.2241 39.1714 13.196C39.0953 13.168 39.0151 13.1595 38.931 13.1706C38.8486 13.1818 38.7644 13.209 38.6783 13.2522C38.5941 13.2956 38.5115 13.3512 38.4307 13.4189ZM40.516 16.7089C40.5559 16.6754 40.5853 16.6355 40.6042 16.5891C40.625 16.5429 40.6267 16.4811 40.6095 16.4038C40.5942 16.3266 40.5522 16.2259 40.4838 16.1015C40.4275 15.9958 40.3818 15.8956 40.3467 15.801C40.3125 15.7074 40.2925 15.6197 40.2868 15.5378C40.282 15.457 40.2932 15.3822 40.3205 15.3134C40.3479 15.2447 40.395 15.1823 40.4619 15.1263C40.5257 15.0728 40.5978 15.0362 40.6782 15.0165C40.7593 14.9978 40.8436 14.996 40.931 15.0111C41.0192 15.0272 41.1067 15.0618 41.1935 15.1147C41.2804 15.1677 41.3618 15.2396 41.4379 15.3304C41.5466 15.4602 41.6164 15.5902 41.6474 15.7205C41.6784 15.8508 41.676 15.9726 41.6401 16.0859C41.6052 16.1984 41.5413 16.2935 41.4484 16.3712L41.2165 16.0942C41.2614 16.0566 41.2935 16.0067 41.3129 15.9447C41.3341 15.8828 41.3373 15.8147 41.3226 15.7403C41.3088 15.667 41.2713 15.5939 41.2103 15.5211C41.1459 15.4442 41.0817 15.3918 41.0176 15.364C40.9554 15.3363 40.8971 15.3265 40.8427 15.3347C40.7892 15.3438 40.7425 15.3651 40.7026 15.3985C40.6726 15.4236 40.6499 15.4512 40.6343 15.4812C40.6205 15.5114 40.6149 15.5484 40.6175 15.592C40.6212 15.6349 40.635 15.6878 40.6589 15.751C40.6829 15.8141 40.7182 15.8907 40.7648 15.9808C40.846 16.1386 40.9016 16.278 40.9316 16.399C40.9616 16.52 40.9637 16.6269 40.9379 16.7198C40.9121 16.8127 40.8558 16.8956 40.769 16.9683C40.6981 17.0277 40.6207 17.067 40.5367 17.0864C40.4535 17.1068 40.3671 17.107 40.2774 17.087C40.1895 17.0673 40.1013 17.029 40.013 16.9722C39.9265 16.9155 39.8435 16.8398 39.7641 16.745C39.6446 16.6022 39.5689 16.4601 39.537 16.3186C39.5052 16.1772 39.5083 16.0471 39.5466 15.9285C39.5848 15.8099 39.6488 15.7129 39.7387 15.6377L39.9719 15.9162C39.8994 15.9837 39.8574 16.0563 39.8459 16.1338C39.8354 16.2105 39.8449 16.2858 39.8745 16.3596C39.905 16.4325 39.9441 16.4974 39.9917 16.5543C40.0553 16.6302 40.1183 16.6852 40.1809 16.7194C40.2444 16.7546 40.3048 16.7711 40.3624 16.7687C40.4199 16.7664 40.4711 16.7465 40.516 16.7089ZM43.235 17.5371L43.0224 17.7151L42.2887 16.8392L42.5014 16.6611L43.235 17.5371ZM43.1435 16.6278L43.3755 16.9048L41.7628 18.2554C41.7079 18.3014 41.6736 18.3445 41.6598 18.3849C41.6461 18.4253 41.646 18.4627 41.6596 18.4972C41.6732 18.5317 41.693 18.5644 41.7189 18.5953C41.7381 18.6183 41.7602 18.6406 41.7851 18.6622C41.8118 18.684 41.8321 18.7001 41.8459 18.7106L41.6211 18.9014C41.5957 18.8853 41.565 18.8618 41.5289 18.8309C41.4927 18.8018 41.4536 18.7623 41.4118 18.7124C41.355 18.6445 41.3162 18.5708 41.2955 18.4913C41.2748 18.4119 41.2817 18.3288 41.3161 18.2422C41.3524 18.1558 41.4245 18.0674 41.5323 17.9771L43.1435 16.6278ZM43.0163 18.9581L43.0507 18.9293C43.1675 18.8315 43.2901 18.7577 43.4183 18.7081C43.5475 18.6576 43.6759 18.6333 43.8032 18.6354C43.9316 18.6366 44.0543 18.6654 44.1713 18.722C44.2893 18.7777 44.3955 18.862 44.49 18.9748C44.5853 19.0886 44.6501 19.2085 44.6842 19.3344C44.7202 19.4605 44.7275 19.5869 44.7061 19.7135C44.6866 19.8402 44.6406 19.9628 44.5682 20.0812C44.4969 20.1987 44.4028 20.3064 44.286 20.4042L44.2515 20.433C44.1347 20.5309 44.0122 20.6046 43.884 20.6543C43.7557 20.7039 43.627 20.7277 43.4978 20.7255C43.3704 20.7235 43.2477 20.6946 43.1297 20.6389C43.0135 20.5833 42.9078 20.4986 42.8125 20.3848C42.7172 20.271 42.6519 20.1515 42.6168 20.0264C42.5826 19.9005 42.5753 19.7741 42.5949 19.6474C42.6162 19.5208 42.6626 19.3987 42.734 19.2812C42.8054 19.1636 42.8995 19.056 43.0163 18.9581ZM43.2827 19.2063L43.2483 19.2352C43.1674 19.3029 43.099 19.3763 43.043 19.4555C42.988 19.5338 42.949 19.6149 42.9258 19.6988C42.9035 19.7837 42.9007 19.8685 42.9172 19.9532C42.9347 20.037 42.9757 20.1173 43.0401 20.1942C43.1036 20.2701 43.1747 20.3235 43.2533 20.3545C43.3337 20.3856 43.4173 20.3972 43.5039 20.3891C43.5906 20.3811 43.6773 20.3568 43.7641 20.3165C43.8527 20.2762 43.9374 20.2222 44.0183 20.1545L44.0527 20.1257C44.1326 20.0588 44.1996 19.9857 44.2537 19.9064C44.3097 19.8272 44.3489 19.7452 44.3712 19.6603C44.3953 19.5755 44.3991 19.4908 44.3825 19.4062C44.3668 19.3225 44.3268 19.2423 44.2624 19.1654C44.1989 19.0895 44.1269 19.036 44.0465 19.0049C43.9669 18.9747 43.8828 18.9636 43.7943 18.9715C43.7076 18.9795 43.6204 19.0042 43.5327 19.0454C43.4459 19.0858 43.3626 19.1394 43.2827 19.2063ZM45.6804 21.1596L44.4061 22.2268L44.1741 21.9498L45.7943 20.5929L46.0137 20.855L45.6804 21.1596ZM45.2224 21.4311L45.1303 21.312C45.242 21.2202 45.3581 21.151 45.4787 21.1044C45.6003 21.0569 45.7202 21.0328 45.8386 21.0322C45.957 21.0316 46.0686 21.0553 46.1734 21.1034C46.28 21.1517 46.3743 21.2247 46.4562 21.3225C46.5231 21.4024 46.5723 21.4835 46.6039 21.5657C46.6364 21.6472 46.648 21.73 46.6388 21.8142C46.6303 21.8994 46.5987 21.9854 46.5439 22.072C46.49 22.1579 46.4097 22.2455 46.3029 22.3349L45.2413 23.2241L45.008 22.9455L46.0727 22.0539C46.1575 21.9829 46.215 21.9135 46.245 21.8459C46.276 21.7775 46.2829 21.7097 46.2657 21.6426C46.2495 21.5746 46.2122 21.5057 46.1537 21.4358C46.096 21.3669 46.0289 21.3162 45.9522 21.2835C45.8765 21.2518 45.796 21.2369 45.7108 21.2386C45.6265 21.2413 45.5417 21.2587 45.4566 21.291C45.3733 21.3233 45.2953 21.3701 45.2224 21.4311ZM46.5506 24.8482C46.4561 24.7354 46.3894 24.6172 46.3504 24.4936C46.3132 24.3701 46.302 24.2462 46.3167 24.1218C46.3322 23.9984 46.3733 23.8791 46.4399 23.7639C46.5064 23.6487 46.5966 23.5435 46.7104 23.4482L46.7733 23.3955C46.9051 23.2851 47.0387 23.2064 47.1741 23.1592C47.3105 23.1112 47.4427 23.0905 47.5706 23.0972C47.6985 23.1039 47.8164 23.1342 47.9244 23.1881C48.0324 23.242 48.1244 23.3144 48.2005 23.4052C48.2975 23.521 48.3611 23.6376 48.3914 23.7549C48.4225 23.8732 48.4248 23.9894 48.398 24.1035C48.3723 24.2167 48.3219 24.3269 48.2468 24.4339C48.1727 24.5401 48.0787 24.6409 47.9649 24.7362L47.8407 24.8403L46.8274 23.6304L47.0535 23.4411L47.8348 24.3739L47.8557 24.3564C47.9243 24.2922 47.9816 24.2187 48.0277 24.1359C48.0747 24.0541 48.0972 23.9673 48.0951 23.8756C48.0931 23.7839 48.0523 23.6907 47.9729 23.5958C47.9202 23.533 47.8583 23.4863 47.787 23.456C47.7167 23.4248 47.6398 23.412 47.5561 23.4176C47.4724 23.4231 47.3844 23.4467 47.2919 23.4885C47.1995 23.5302 47.1044 23.5921 47.0066 23.674L46.9437 23.7267C46.8668 23.791 46.8032 23.8621 46.7529 23.9399C46.7044 24.0179 46.6718 24.0987 46.6552 24.1822C46.6394 24.2668 46.6417 24.3507 46.6621 24.4338C46.6833 24.5179 46.7257 24.5979 46.7892 24.6738C46.8711 24.7716 46.9605 24.8378 47.0573 24.8722C47.154 24.9067 47.2572 24.9213 47.3667 24.9162L47.3739 25.1955C47.2917 25.2049 47.2041 25.2027 47.1111 25.1889C47.018 25.1751 46.9235 25.1414 46.8275 25.0876C46.7323 25.0348 46.64 24.955 46.5506 24.8482ZM50.2414 28.7168L50.0063 28.9137L49.0934 27.8236L49.3285 27.6267L50.2414 28.7168ZM51.3212 26.0546L49.141 27.8805L48.899 27.5915L51.0792 25.7656L51.3212 26.0546ZM51.7492 30.432L52.5832 29.7335C52.6471 29.68 52.6917 29.6206 52.7168 29.5553C52.7439 29.4903 52.749 29.4214 52.7323 29.3487C52.7157 29.2761 52.676 29.2023 52.6133 29.1275C52.5547 29.0576 52.4914 29.0062 52.4231 28.9734C52.3557 28.9416 52.2899 28.927 52.2259 28.9296C52.1627 28.9333 52.1087 28.9539 52.0638 28.9915L51.8318 28.7145C51.8897 28.666 51.9596 28.6329 52.0416 28.6152C52.1236 28.5975 52.2109 28.5974 52.3037 28.6148C52.3982 28.6324 52.492 28.6694 52.585 28.7257C52.6799 28.7821 52.7682 28.8593 52.8502 28.9571C52.9488 29.0749 53.0158 29.1954 53.0511 29.3187C53.0873 29.443 53.0862 29.5644 53.048 29.6831C53.0116 29.8019 52.933 29.9118 52.8122 30.013L52.0576 30.645C52.0037 30.6902 51.95 30.7427 51.8967 30.8027C51.8441 30.8637 51.8038 30.9221 51.7758 30.9778L51.7519 30.9979L51.5098 30.7089C51.5301 30.6682 51.5633 30.6217 51.6095 30.5694C51.6567 30.5162 51.7033 30.4704 51.7492 30.432ZM52.4946 29.8892L52.3024 30.0553L52.0679 29.7753C52.0019 29.6964 51.9365 29.6314 51.8717 29.5804C51.8078 29.5286 51.7459 29.4921 51.6858 29.4711C51.6258 29.4501 51.5676 29.4445 51.5112 29.4543C51.4559 29.4632 51.4033 29.4886 51.3534 29.5304C51.3025 29.5731 51.2657 29.6234 51.243 29.6815C51.2203 29.7396 51.2157 29.802 51.2292 29.8688C51.2445 29.9358 51.2806 30.0032 51.3375 30.0711C51.4085 30.156 51.4892 30.2158 51.5795 30.2506C51.6697 30.2854 51.7567 30.3 51.8404 30.2945C51.9249 30.2899 51.9929 30.2687 52.0443 30.2307L52.0101 30.4606C51.9623 30.4887 51.9 30.5086 51.8232 30.5203C51.7464 30.532 51.6628 30.5315 51.5724 30.5189C51.4838 30.5065 51.3944 30.4778 51.3041 30.4328C51.2156 30.388 51.1346 30.3217 51.061 30.2339C50.9691 30.124 50.9098 30.0097 50.8834 29.8909C50.8578 29.7731 50.8616 29.6612 50.8951 29.5551C50.9303 29.4491 50.9929 29.3585 51.0827 29.2833C51.1695 29.2105 51.2601 29.1636 51.3544 29.1423C51.4497 29.1202 51.5461 29.1228 51.6435 29.1499C51.742 29.1761 51.8403 29.2246 51.9385 29.2952C52.0367 29.3658 52.1322 29.4565 52.225 29.5673L52.4946 29.8892ZM55.0261 30.235L52.7261 32.1612L52.4929 31.8827L54.7928 29.9565L55.0261 30.235ZM55.1752 31.7941L53.8271 31.7206L53.0858 31.6689L53.362 31.3994L53.9374 31.399L54.8918 31.4557L55.1752 31.7941ZM53.3431 32.8979L53.6317 31.6728L53.9992 31.6097L53.6165 33.2243L53.3431 32.8979ZM54.7264 34.6104C54.6319 34.4976 54.5652 34.3794 54.5262 34.2558C54.489 34.1323 54.4778 34.0084 54.4925 33.884C54.5081 33.7606 54.5491 33.6413 54.6157 33.5261C54.6823 33.4109 54.7724 33.3057 54.8862 33.2104L54.9491 33.1577C55.0809 33.0473 55.2145 32.9686 55.3499 32.9214C55.4863 32.8734 55.6185 32.8527 55.7464 32.8594C55.8743 32.8661 55.9922 32.8964 56.1002 32.9503C56.2082 33.0042 56.3002 33.0766 56.3763 33.1674C56.4733 33.2832 56.5369 33.3998 56.5672 33.5171C56.5984 33.6354 56.6006 33.7516 56.5738 33.8657C56.5481 33.9789 56.4977 34.0891 56.4226 34.1961C56.3485 34.3023 56.2546 34.4031 56.1408 34.4984L56.0165 34.6025L55.0032 33.3926L55.2293 33.2033L56.0106 34.1361L56.0315 34.1186C56.1001 34.0544 56.1574 33.9809 56.2036 33.8981C56.2505 33.8163 56.273 33.7295 56.2709 33.6378C56.2689 33.5461 56.2281 33.4529 56.1487 33.3581C56.096 33.2952 56.0341 33.2485 55.9628 33.2182C55.8926 33.187 55.8156 33.1742 55.7319 33.1798C55.6482 33.1853 55.5602 33.2089 55.4678 33.2507C55.3753 33.2924 55.2802 33.3543 55.1824 33.4362L55.1195 33.4889C55.0426 33.5532 54.979 33.6243 54.9287 33.7021C54.8802 33.7801 54.8477 33.8609 54.831 33.9445C54.8152 34.029 54.8175 34.1129 54.8379 34.196C54.8591 34.2801 54.9015 34.3601 54.965 34.436C55.0469 34.5338 55.1363 34.6 55.2331 34.6344C55.3299 34.6689 55.433 34.6835 55.5425 34.6784L55.5497 34.9577C55.4675 34.9671 55.3799 34.9649 55.2869 34.9511C55.1938 34.9374 55.0993 34.9036 55.0033 34.8498C54.9081 34.797 54.8158 34.7172 54.7264 34.6104Z" fill="#888888"/>
</g>
<defs>
<clipPath id="clip0_884_1686">
<rect width="268" height="174" fill="white"/>
</clipPath>
</defs>
</svg>
